<svg width="89" height="74" viewBox="0 0 69 54" xmlns="http://www.w3.org/2000/svg"><g fill-rule="nonzero"><path d="M29.533 45.267a1.27 1.27 0 0 1-.92-.403v.316H28v-4.887l.613-.293v1.83c.228-.262.556-.41.9-.402a1.32 1.32 0 0 1 1.081.51c.292.406.435.904.406 1.407a2.27 2.27 0 0 1-.388 1.423c-.261.333-.662.518-1.08.499Zm-.085-.58a.78.78 0 0 0 .693-.357 2.215 2.215 0 0 0 0-1.983.79.79 0 0 0-.693-.346.879.879 0 0 0-.499.152c-.134.084-.246.2-.329.336v1.69a.988.988 0 0 0 .357.365c.141.09.304.14.47.145v-.003Zm5.039.068c-.302.325-.722.51-1.16.51-.44 0-.859-.185-1.16-.51-.305-.4-.457-.9-.43-1.405a2.154 2.154 0 0 1 .43-1.413c.301-.325.72-.51 1.16-.51.438 0 .858.185 1.16.51.568.85.568 1.968 0 2.818Zm-1.874-.425c.17.225.434.356.712.356a.895.895 0 0 0 .713-.356 2.02 2.02 0 0 0 0-1.97.822.822 0 0 0-.713-.36.831.831 0 0 0-.712.357 1.687 1.687 0 0 0-.25.995c-.02.345.067.687.25.978Zm3.987.937c-.499 0-.748-.29-.748-.876V40.3l.61-.301v1.515h.885v.544h-.884v2.12a.73.73 0 0 0 .077.375.316.316 0 0 0 .296.13.998.998 0 0 0 .534-.194l-.07.609c-.213.113-.45.17-.69.168h-.01Zm1.694-.087v-4.887l.61-.293v5.18h-.61Zm3.863 0v-.336a1.43 1.43 0 0 1-1.02.423 1.284 1.284 0 0 1-.909-.319 1.198 1.198 0 0 1-.339-.916 1.085 1.085 0 0 1 .386-.904c.274-.211.611-.32.955-.308a1.81 1.81 0 0 1 .927.237v-.254a.85.85 0 0 0-.2-.642.833.833 0 0 0-.58-.183 1.758 1.758 0 0 0-1.047.366l-.174-.524a2.282 2.282 0 0 1 1.298-.387c.852 0 1.278.44 1.278 1.321v2.431l-.575-.005Zm-.927-.466a1.18 1.18 0 0 0 .927-.48v-.632a1.544 1.544 0 0 0-.843-.255 1.018 1.018 0 0 0-.61.173.58.58 0 0 0-.25.51.651.651 0 0 0 .2.509.796.796 0 0 0 .586.175h-.01Zm4.094.553a1.27 1.27 0 0 1-.92-.403v.316h-.61v-4.887l.61-.293v1.83c.228-.262.557-.41.9-.402.419-.014.82.175 1.082.51.292.405.436.903.408 1.407a2.255 2.255 0 0 1-.391 1.423 1.287 1.287 0 0 1-1.069.499h-.01Zm-.082-.58a.775.775 0 0 0 .69-.357 2.195 2.195 0 0 0 0-1.983.784.784 0 0 0-.69-.346.874.874 0 0 0-.499.152 1.008 1.008 0 0 0-.331.336v1.69c.087.151.21.277.359.365.144.092.31.142.48.145l-.01-.003Zm3.56.58a1.675 1.675 0 0 1-1.31-.616l.434-.382c.217.268.538.428.88.438a.882.882 0 0 0 .483-.118.39.39 0 0 0 .182-.348.453.453 0 0 0-.132-.313.998.998 0 0 0-.275-.207 6.176 6.176 0 0 0-.413-.175 2.576 2.576 0 0 1-.83-.469.88.88 0 0 1-.282-.68.844.844 0 0 1 .342-.707c.253-.18.558-.27.867-.254.465-.018.912.186 1.209.552l-.422.359a1.051 1.051 0 0 0-.795-.351.772.772 0 0 0-.433.107.34.34 0 0 0-.162.302c0 .07.017.137.052.196.047.073.113.131.19.168.09.054.164.092.216.12.053.028.155.069.3.125.314.104.607.264.867.473a.95.95 0 0 1 .299.746.932.932 0 0 1-.344.764c-.267.19-.587.285-.912.27h-.01Zm-20.052 7.33c-.498 0-.748-.291-.748-.875v-4.09l.614-.301v1.527h.884v.545h-.884v2.123a.73.73 0 0 0 .077.374c.068.094.18.144.294.13.192-.012.377-.08.533-.194l-.07.609a1.44 1.44 0 0 1-.69.152h-.01Zm1.657-.086v-3.666h.613v.482a.867.867 0 0 1 .85-.568.826.826 0 0 1 .556.186l-.093.588a.879.879 0 0 0-.513-.158.74.74 0 0 0-.558.254 1.15 1.15 0 0 0-.25.818v2.066l-.605-.002Zm4.842 0v-.351a1.075 1.075 0 0 1-.907.437 1.21 1.21 0 0 1-.98-.386c-.219-.255-.326-.675-.326-1.25v-2.116h.61v2.207c-.02.26.053.52.208.728a.72.72 0 0 0 .565.235c.553 0 .83-.316.83-.947v-2.225h.61v3.665l-.61.003Zm2.838.086a1.665 1.665 0 0 1-.747-.168 1.57 1.57 0 0 1-.566-.448l.436-.381c.217.268.537.428.877.437a.884.884 0 0 0 .499-.117.39.39 0 0 0 .182-.348.453.453 0 0 0-.132-.313 1.046 1.046 0 0 0-.274-.21 7.686 7.686 0 0 0-.417-.172 2.589 2.589 0 0 1-.827-.469.874.874 0 0 1-.282-.682.836.836 0 0 1 .342-.705c.253-.18.558-.27.867-.254.465-.019.912.186 1.209.552l-.422.359a1.056 1.056 0 0 0-.794-.351.782.782 0 0 0-.437.106.343.343 0 0 0-.162.3c0 .07.018.14.053.2.05.07.114.127.19.167.091.054.164.092.219.12.054.028.152.069.299.125.314.104.607.264.867.473.204.19.314.464.299.746a.924.924 0 0 1-.344.764 1.44 1.44 0 0 1-.925.27h-.01Zm2.93 0c-.497 0-.747-.291-.747-.875v-4.09l.61-.301v1.527h.886v.545h-.885v2.123a.73.73 0 0 0 .077.374.316.316 0 0 0 .297.13c.195-.018.38-.092.535-.214l-.07.608a1.45 1.45 0 0 1-.692.173h-.01Zm2.974 0c-.449.019-.88-.18-1.164-.534a2.149 2.149 0 0 1-.431-1.387c-.03-.508.126-1.01.436-1.408.291-.34.717-.527 1.159-.51.4-.012.786.148 1.064.441.302.361.453.83.419 1.304 0 .138-.008.277-.023.414h-2.415c.007.298.116.583.307.807.17.2.419.312.678.306.29.003.57-.115.772-.329l.372.423a1.555 1.555 0 0 1-1.164.473h-.01Zm-.955-2.209h1.842a1.151 1.151 0 0 0-.264-.822.824.824 0 0 0-.6-.255.919.919 0 0 0-.684.27c-.194.221-.299.51-.294.807Zm4.645 2.21a1.302 1.302 0 0 1-1.084-.51 2.236 2.236 0 0 1-.398-1.405 2.21 2.21 0 0 1 .403-1.407 1.384 1.384 0 0 1 1.994-.165v-1.48l.613-.292v5.18h-.613v-.296c-.241.257-.58.393-.927.374h.012Zm.083-.58a.904.904 0 0 0 .822-.497V49.8a.91.91 0 0 0-.822-.468.804.804 0 0 0-.7.348c-.184.297-.27.645-.25.996-.016.338.071.673.25.96a.791.791 0 0 0 .687.381h.013Zm5.544.666c-.448.018-.88-.18-1.164-.535-.3-.396-.452-.889-.43-1.39a2.084 2.084 0 0 1 .435-1.404c.29-.341.717-.529 1.16-.51a1.4 1.4 0 0 1 1.063.443c.303.361.453.83.419 1.304 0 .138-.008.277-.023.415h-2.43c.008.297.116.582.307.806.17.2.42.312.678.306a1.04 1.04 0 0 0 .773-.331l.371.425c-.31.317-.734.487-1.171.471h.012Zm-.977-2.212h1.842a1.136 1.136 0 0 0-.264-.82.826.826 0 0 0-.6-.254.919.919 0 0 0-.681.27c-.199.218-.31.506-.31.804h.013Zm5.585 2.125V50.38c.022-.26-.052-.52-.207-.728a.71.71 0 0 0-.566-.234c-.55 0-.825.316-.827.947v2.232h-.613V48.93h.613v.375c.213-.304.562-.477.927-.461.36-.025.713.12.957.392.22.254.326.677.326 1.252v2.11h-.61Zm2.375.087c-.499 0-.752-.292-.76-.876v-4.09l.61-.303v1.514h.887v.545h-.887V51.6c-.007.13.02.259.08.374.069.093.18.141.294.127a.984.984 0 0 0 .533-.193l-.07.61c-.216.114-.457.17-.7.166h.013Zm2.242-4.533a.377.377 0 0 1-.274.112.358.358 0 0 1-.271-.115.384.384 0 0 1-.107-.272.402.402 0 0 1 .112-.285.35.35 0 0 1 .266-.118.363.363 0 0 1 .274.118.402.402 0 0 1 .113.285.37.37 0 0 1-.128.275h.015Zm-.575 4.446V48.93h.61v3.668h-.61Zm2.474.087c-.498 0-.747-.292-.747-.876v-4.09l.61-.303v1.514h.885v.545h-.885V51.6a.73.73 0 0 0 .077.374c.07.092.181.14.295.127a.998.998 0 0 0 .535-.193l-.07.61a1.45 1.45 0 0 1-.715.166h.015Zm2.089 1.306.545-1.487-1.325-3.563h.61l.892 2.497c.043.115.08.232.112.351.032-.119.07-.236.112-.351l.908-2.497H69L67.139 54l-.618-.01ZM19.571 14.288c-1.978-2.454-4.576-3.68-7.792-3.68-2.44 0-4.385.853-5.839 2.56V.417L0 3.132v34.252h1.802l4.138-2.005c1.387 1.746 3.301 2.62 5.742 2.622 3.385 0 6.042-1.195 7.971-3.584 1.929-2.39 2.892-5.77 2.888-10.14 0-4.199-.99-7.529-2.97-9.988Zm-4.41 15.844c-.964 1.424-2.36 2.135-4.187 2.133-2.267 0-3.942-.836-5.026-2.507V18.842c1.108-1.7 2.784-2.55 5.018-2.55 1.795 0 3.182.693 4.164 2.059.981 1.366 1.471 3.344 1.471 5.938 0 2.483-.48 4.43-1.44 5.843ZM63 22.427c0-4.021-1.058-7.077-3.174-9.167-2.116-2.09-4.832-3.128-8.148-3.113-3.657 0-6.568 1.22-8.734 3.66-2.166 2.44-3.249 5.775-3.249 10.006 0 4.266 1.077 7.619 3.231 10.059 2.155 2.44 5.074 3.66 8.76 3.662 3.889 0 6.968-1.369 9.238-4.106l-5.145-2.474a6.549 6.549 0 0 1-4.094 1.296 5.82 5.82 0 0 1-4.19-1.69c-1.166-1.118-1.802-2.609-1.904-4.454h17.212c.143-1.221.208-2.45.197-3.68Zm-17.364-1.281c.134-1.939.751-3.378 1.851-4.32 1.101-.937 2.486-1.415 4.191-1.415a5.196 5.196 0 0 1 3.706 1.458c1.014.973 1.59 2.407 1.725 4.277H45.635Zm-7.487-5.119v-5.224h-5.99V0l-5.94 2.868v28.006c0 4.472 2.013 6.707 6.04 6.707 1.12.013 2.238-.12 3.325-.393v-5.104c-.41.082-.826.121-1.243.118-1.456 0-2.184-.835-2.182-2.506V17.263l-2.553-1.22h2.553l5.99-.016Z"/></g></svg>