<?xml version="1.0" encoding="UTF-8"?>
<svg width="89px" height="74px" viewBox="0 0 69 54" version="1.1" xmlns="http://www.w3.org/2000/svg"
    xmlns:xlink="http://www.w3.org/1999/xlink">
    <title>bte_Element 21 Copy</title>
    <g id="Version-1" stroke="none" stroke-width="1" fill-rule="evenodd">
        <g id="Imprint" transform="translate(-686.000000, -288.000000)" fill-rule="nonzero">
            <g id="Group-6" transform="translate(478.000000, 253.000000)">
                <g id="Element-21-Copy" transform="translate(208.000000, 35.000000)">
                    <path
                        d="M29.5325473,45.2665455 C29.1854014,45.26504 28.8536608,45.1199439 28.6130189,44.8643636 L28.6130189,45.18 L28,45.18 L28,40.2927273 L28.6130189,40 L28.6130189,41.8301818 C28.8405269,41.5677015 29.1694824,41.4206351 29.5126117,41.428 C29.9314808,41.4142704 30.3322081,41.6029026 30.5941166,41.9370909 C30.8855342,42.3438325 31.0291574,42.8415568 31.0003039,43.3447273 C31.0323676,43.8503294 30.8952942,44.3520561 30.6115602,44.7676364 C30.3506555,45.1005803 29.9496185,45.2860099 29.5325473,45.2665455 L29.5325473,45.2665455 Z M29.4478211,44.6861818 C29.7240807,44.700371 29.9872598,44.5649889 30.1405823,44.3298182 C30.4528937,43.707342 30.4528937,42.9693853 30.1405823,42.3469091 C29.9835954,42.1171593 29.7217458,41.9863096 29.4478211,42.0007273 C29.2705248,41.9999173 29.0970132,42.0530885 28.9494317,42.1534545 C28.8153773,42.2373865 28.7026624,42.3525217 28.6204947,42.4894545 L28.6204947,44.1796364 C28.7060657,44.3307179 28.8289375,44.456228 28.9768431,44.5436364 C29.1184329,44.6338723 29.2809989,44.6839529 29.4478211,44.6887273 L29.4478211,44.6861818 Z M34.4865374,44.7549091 C34.1848575,45.0804296 33.76536,45.264838 33.3265362,45.264838 C32.8877124,45.264838 32.4682149,45.0804296 32.166535,44.7549091 C31.862005,44.3549092 31.7097296,43.855718 31.7379201,43.3498182 C31.7103899,42.8416524 31.8624994,42.3402948 32.166535,41.9370909 C32.4682149,41.6115704 32.8877124,41.427162 33.3265362,41.427162 C33.76536,41.427162 34.1848575,41.6115704 34.4865374,41.9370909 C35.0549089,42.7866484 35.0549089,43.9053516 34.4865374,44.7549091 L34.4865374,44.7549091 Z M32.6125934,44.3298182 C32.7834696,44.554765 33.0465524,44.6863882 33.3252902,44.6863882 C33.604028,44.6863882 33.8671108,44.554765 34.037987,44.3298182 C34.3799784,43.7195466 34.3799784,42.969908 34.037987,42.3596364 C33.8758949,42.1236688 33.6072334,41.9883728 33.3252902,42.0007273 C33.0442041,41.9896857 32.7764738,42.1235566 32.6125934,42.3570909 C32.4285694,42.6535775 32.3413234,43.0020343 32.3633988,43.3523636 C32.3428126,43.6969384 32.4300869,44.0392678 32.6125934,44.3298182 L32.6125934,44.3298182 Z M36.5997083,45.2665455 C36.1013189,45.2665455 35.8521242,44.9763636 35.8521242,44.3909091 L35.8521242,40.3003636 L36.4626512,40 L36.4626512,41.5145455 L37.3472923,41.5145455 L37.3472923,42.0592727 L36.4626512,42.0592727 L36.4626512,44.1796364 C36.4548039,44.3092043 36.4815015,44.4385208 36.5399015,44.5538182 C36.6084582,44.6487292 36.7218788,44.6983817 36.8364432,44.6836364 C37.0285982,44.6722801 37.2135949,44.6051696 37.3697198,44.4901818 L37.2999453,45.0985455 C37.0870603,45.2121656 36.8498463,45.2698995 36.609676,45.2665455 L36.5997083,45.2665455 Z M38.2942321,45.18 L38.2942321,40.2927273 L38.904759,40 L38.904759,45.18 L38.2942321,45.18 Z M42.1567495,45.18 L42.1567495,44.844 C41.884812,45.1165567 41.5185203,45.268415 41.1375433,45.2665455 C40.8057026,45.2830248 40.4802658,45.1691807 40.2279827,44.9483636 C39.9907695,44.7072307 39.8672007,44.3731133 39.889078,44.032 C39.8668914,43.6846537 40.0108515,43.3478588 40.2753297,43.1283636 C40.5493797,42.9167431 40.8864137,42.8079787 41.2297453,42.8203636 C41.5537552,42.814584 41.8735211,42.896242 42.1567495,43.0570909 L42.1567495,42.8025455 C42.1810304,42.5696593 42.1087316,42.337028 41.9573938,42.1610909 C41.7928103,42.0285432 41.5858672,41.963222 41.3767702,41.9778182 C40.9986576,41.9834535 40.6321057,42.1118269 40.3301526,42.3443636 L40.1557163,41.82 C40.541199,41.5620433 40.9932183,41.4273365 41.4540205,41.4330909 C42.3062663,41.4330909 42.7323892,41.8734545 42.7323892,42.7541818 L42.7323892,45.1850909 L42.1567495,45.18 Z M41.2297453,44.7141818 C41.5946664,44.7076963 41.9364417,44.5303238 42.1567495,44.2330909 L42.1567495,43.6018182 C41.9054781,43.4367056 41.6132427,43.3483889 41.3144715,43.3472727 C41.0982456,43.3382986 40.8847114,43.3988378 40.7039446,43.5203636 C40.538756,43.6332567 40.4440527,43.8267303 40.4547499,44.0294545 C40.4436284,44.2210156 40.5167182,44.4076635 40.6541056,44.5385455 C40.8192919,44.6731024 41.0295322,44.736158 41.2397131,44.7141818 L41.2297453,44.7141818 Z M45.3240139,45.2665455 C44.976868,45.26504 44.6451274,45.1199439 44.4044855,44.8643636 L44.4044855,45.18 L43.7939585,45.18 L43.7939585,40.2927273 L44.4044855,40 L44.4044855,41.8301818 C44.6319935,41.5677015 44.960949,41.4206351 45.3040783,41.428 C45.7230275,41.4138655 46.1239239,41.6025773 46.3855832,41.9370909 C46.6778856,42.3434965 46.8223986,42.8412506 46.7942624,43.3447273 C46.8268087,43.8507564 46.6887386,44.3529121 46.4030268,44.7676364 C46.1449937,45.098613 45.7478402,45.2839593 45.3339816,45.2665455 L45.3240139,45.2665455 Z M45.2417796,44.6861818 C45.5173846,44.7004905 45.7798768,44.5649743 45.9320489,44.3298182 C46.2476849,43.7081659 46.2476849,42.9685614 45.9320489,42.3469091 C45.7761836,42.1171867 45.5150363,41.9862169 45.2417796,42.0007273 C45.0644396,41.9996068 44.890841,42.0528046 44.7433903,42.1534545 C44.6084276,42.2370693 44.4948346,42.3522289 44.4119613,42.4894545 L44.4119613,44.1796364 C44.4989526,44.3304622 44.6225437,44.4558304 44.7708017,44.5436364 C44.9151285,44.6359763 45.0814657,44.6861566 45.2517474,44.6887273 L45.2417796,44.6861818 Z M48.8027715,45.2665455 C48.5443304,45.2691652 48.2886901,45.2117167 48.0551875,45.0985455 C47.8359914,44.9958411 47.6431852,44.842467 47.4920075,44.6505455 L47.9256063,44.2687273 C48.1434884,44.5371651 48.464029,44.6967028 48.8052635,44.7065455 C48.9739876,44.7147845 49.1415609,44.6741974 49.2887011,44.5894545 C49.4072586,44.5159888 49.4770387,44.3822197 49.4706133,44.2407273 C49.468703,44.1226627 49.4212379,44.0101426 49.3385401,43.9276364 C49.2594186,43.8433623 49.1666953,43.7736182 49.0644259,43.7214545 C48.969732,43.6756364 48.8326749,43.6170909 48.6507628,43.5458182 C48.348316,43.4431452 48.0670038,43.2843678 47.8209445,43.0774545 C47.6330666,42.9047671 47.5299163,42.655807 47.5393545,42.3978182 C47.5304492,42.1185316 47.6585019,41.8531081 47.8807512,41.6901818 C48.1342468,41.5095824 48.4392635,41.4200519 48.7479487,41.4356364 C49.2130176,41.4175828 49.6597953,41.6217736 49.9565429,41.988 L49.5354039,42.3469091 C49.3313659,42.1197042 49.0422892,41.9919639 48.7404729,41.9956364 C48.5888601,41.9876936 48.4382453,42.0248295 48.3068741,42.1025455 C48.2027646,42.1657092 48.1406645,42.2818414 48.1448976,42.4054545 C48.1441812,42.4744846 48.1623019,42.5423541 48.1972285,42.6014545 C48.244235,42.6739975 48.3097113,42.7320795 48.3866164,42.7694545 C48.4763265,42.8229091 48.5510849,42.8610909 48.6034158,42.8890909 C48.6557467,42.9170909 48.7579165,42.9578182 48.9024494,43.0138182 C49.2167303,43.117819 49.5103769,43.2781382 49.7696469,43.4872727 C49.9739819,43.6773447 50.0837892,43.9512145 50.0686805,44.2330909 C50.0805917,44.5292438 49.9526922,44.8132564 49.7247918,44.9967273 C49.4581115,45.1867072 49.1375372,45.2815447 48.8127393,45.2665455 L48.8027715,45.2665455 Z M28.750076,52.5974545 C28.2516866,52.5974545 28.0024919,52.3055758 28.0024919,51.7218182 L28.0024919,47.6312727 L28.6155108,47.3309091 L28.6155108,48.8581818 L29.5001519,48.8581818 L29.5001519,49.4029091 L28.6155108,49.4029091 L28.6155108,51.5258182 C28.6076636,51.6553861 28.6343611,51.7847026 28.6927612,51.9 C28.7605171,51.9944905 28.8730088,52.0441537 28.9868109,52.0298182 C29.1788017,52.0176372 29.3635807,51.9506056 29.5200875,51.8363636 L29.450313,52.4447273 C29.2358563,52.552366 28.9988829,52.6047982 28.7600438,52.5974545 L28.750076,52.5974545 Z M30.4072206,52.5109091 L30.4072206,48.8454545 L31.0202395,48.8454545 L31.0202395,49.3265455 C31.1541133,48.9700287 31.496576,48.7412633 31.8699933,48.7589091 C32.07107,48.7506213 32.2683426,48.8165859 32.4256974,48.9447273 L32.3334954,49.5327273 C32.182268,49.4276069 32.003061,49.3725127 31.8201544,49.3749091 C31.6070787,49.374624 31.4040087,49.4672268 31.2619583,49.6294545 C31.0774857,49.8580522 30.9880288,50.1513747 31.0127636,50.4465455 L31.0127636,52.5134545 L30.4072206,52.5109091 Z M35.2490731,52.5109091 L35.2490731,52.1596364 C35.0350015,52.4483134 34.6962596,52.6118152 34.3420045,52.5974545 C33.9752217,52.6253963 33.6155911,52.4833159 33.3626694,52.2105455 C33.1433781,51.956 33.0362244,51.536 33.0362244,50.9607273 L33.0362244,48.8454545 L33.6467514,48.8454545 L33.6467514,51.0523636 C33.6256251,51.3127627 33.699269,51.5719723 33.8535829,51.7803636 C33.9994273,51.9393364 34.2062103,52.0249422 34.4192548,52.0145455 C34.972467,52.0145455 35.2490731,51.6989091 35.2490731,51.0676364 L35.2490731,48.8429091 L35.8596001,48.8429091 L35.8596001,52.5083636 L35.2490731,52.5109091 Z M38.0874005,52.5974545 C37.8289231,52.6004326 37.5732047,52.5429666 37.3398164,52.4294545 C37.1199088,52.3267654 36.9262874,52.1734215 36.7741445,51.9814545 L37.2102352,51.5996364 C37.4271377,51.8679511 37.7468854,52.0275463 38.0874005,52.0374545 C38.2611214,52.0484967 38.4342479,52.0078226 38.5857898,51.9203636 C38.7043473,51.8468979 38.7741273,51.7131288 38.7677019,51.5716364 C38.7657917,51.4535718 38.7183266,51.3410516 38.6356288,51.2585455 C38.5561055,51.1740576 38.4634928,51.1035366 38.3615146,51.0498182 C38.2668206,51.0065455 38.1297636,50.948 37.9453595,50.8767273 C37.6439055,50.773505 37.3635053,50.6147656 37.1180332,50.4083636 C36.9288854,50.2355248 36.8255478,49.9851783 36.8364432,49.7261818 C36.8270304,49.4474863 36.955287,49.1825962 37.1778399,49.0210909 C37.4313354,48.8404915 37.7363522,48.750961 38.0450374,48.7665455 C38.5101063,48.7484919 38.956884,48.9526827 39.2536316,49.3189091 L38.8324926,49.6778182 C38.6280816,49.4511494 38.3392508,49.3235177 38.0375615,49.3265455 C37.8851657,49.3186899 37.7337765,49.3558035 37.6014709,49.4334545 C37.4985509,49.4965592 37.4367094,49.611236 37.4394943,49.7338182 C37.4388362,49.8036428 37.4569361,49.8723149 37.4918252,49.9323636 C37.5414629,50.0024989 37.6062731,50.05999 37.6812132,50.1003636 C37.7734152,50.1538182 37.8456816,50.192 37.9005045,50.22 C37.9553273,50.248 38.0525132,50.2887273 38.1995381,50.3447273 C38.513819,50.4487281 38.8074656,50.6090472 39.0667355,50.8181818 C39.2713703,51.0080395 39.3812387,51.2820616 39.3657692,51.564 C39.3789291,51.8604035 39.2507797,52.144971 39.0218805,52.3276364 C38.7522787,52.5214199 38.4264996,52.6164983 38.0973683,52.5974545 L38.0874005,52.5974545 Z M41.0179299,52.5974681 C40.5195405,52.5974681 40.2703458,52.3055758 40.2703458,51.7218182 L40.2703458,47.6312727 L40.8808728,47.3309091 L40.8808728,48.8581818 L41.7655139,48.8581818 L41.7655139,49.4029091 L40.8808728,49.4029091 L40.8808728,51.5258182 C40.8730255,51.6553861 40.8997231,51.7847026 40.9581231,51.9 C41.0266798,51.994911 41.1401004,52.0445635 41.2546648,52.0298182 C41.4495513,52.0121477 41.6354372,51.9379631 41.7904334,51.816 L41.7206588,52.4243636 C41.5070726,52.5390668 41.2692015,52.5985005 41.0278976,52.5974681 L41.0179299,52.5974681 Z M43.9908223,52.5974545 C43.5422851,52.6156715 43.1113918,52.4177474 42.8270832,52.0629091 C42.5274463,51.6670312 42.3747186,51.1755635 42.3959764,50.6756364 C42.3662513,50.167524 42.5215821,49.6661391 42.8320671,49.268 C43.1231667,48.9281678 43.5491047,48.7410349 43.9908223,48.7589091 C44.3903704,48.7462148 44.7766605,48.9060817 45.0548836,49.1992727 C45.3571489,49.5603491 45.507608,50.0287369 45.4735307,50.5025455 C45.4733075,50.6411582 45.465821,50.7796593 45.4511031,50.9174545 L43.0364067,50.9174545 C43.0431556,51.2147411 43.1516001,51.5002292 43.3429162,51.7243636 C43.5133998,51.9237182 43.7616472,52.0355908 44.0207257,52.0298182 C44.3114343,52.0333104 44.5907653,51.9145767 44.7932292,51.7014545 L45.1645293,52.124 C44.8575561,52.4396494 44.4361567,52.6110911 44.0007901,52.5974545 L43.9908223,52.5974545 Z M43.0364067,50.388 L44.8779554,50.388 C44.8996203,50.0890658 44.8046659,49.7935108 44.613809,49.5658182 C44.4556906,49.401303 44.2389434,49.3094352 44.0132499,49.3112727 C43.7591002,49.3020128 43.5123353,49.3995264 43.3304565,49.5810909 C43.1361059,49.8024207 43.0310411,50.0907317 43.0364067,50.388 Z M47.6813955,52.5974545 C47.2610971,52.6148843 46.8580596,52.4256007 46.5973987,52.0883636 C46.3116036,51.6801068 46.170931,51.1843655 46.1986872,50.6832727 C46.1697426,50.1804807 46.3124154,49.682998 46.6023825,49.2756364 C46.8435405,48.9809174 47.1904283,48.7974232 47.5652292,48.7663168 C47.9400301,48.7352103 48.3113676,48.8590957 48.59594,49.1101818 L48.59594,47.6312727 L49.2089589,47.3385455 L49.2089589,52.5185455 L48.59594,52.5185455 L48.59594,52.2232727 C48.354768,52.4795476 48.0164631,52.6161032 47.6689358,52.5974545 L47.6813955,52.5974545 Z M47.7636297,52.0170909 C48.1077354,52.0244017 48.4262487,51.8321479 48.5859722,51.5207273 L48.5859722,49.8 C48.4176309,49.5006681 48.101407,49.3205634 47.7636297,49.3316364 C47.4872203,49.3180437 47.22315,49.4495541 47.0633927,49.6803636 C46.8803162,49.9772675 46.79315,50.3254058 46.814198,50.6756364 C46.7983198,51.014119 46.8853657,51.3493283 47.0633927,51.6352727 C47.211167,51.8770183 47.4721994,52.02193 47.75117,52.0170909 L47.7636297,52.0170909 Z M53.3082113,52.684 C52.859674,52.7022169 52.4287807,52.5042928 52.1444721,52.1494545 C51.8444658,51.7527949 51.6917291,51.2603967 51.7133653,50.7596364 C51.6835496,50.2522928 51.8389246,49.7516722 52.149456,49.3545455 C52.4398997,49.0137937 52.8662912,48.8264616 53.3082113,48.8454545 C53.7082493,48.832782 54.0948403,48.9936982 54.3722725,49.2883636 C54.6747784,49.6493018 54.8252708,50.1177936 54.7909196,50.5916364 C54.7906304,50.7302472 54.783144,50.8687447 54.7684921,51.0065455 L52.338844,51.0065455 C52.3455928,51.303832 52.4540373,51.5893201 52.6453534,51.8134545 C52.815837,52.0128091 53.0640844,52.1246817 53.3231629,52.1189091 C53.6144165,52.1226489 53.8941426,52.0028256 54.0956664,51.788 L54.4669665,52.2130909 C54.1577769,52.5297854 53.7333153,52.7004482 53.2957515,52.684 L53.3082113,52.684 Z M52.3313681,50.472 L54.1729168,50.472 C54.1955736,50.1737164 54.1004567,49.8785721 53.9087704,49.6523636 C53.7504889,49.4880953 53.5338488,49.396273 53.3082113,49.3978182 C53.0549162,49.3892607 52.8091835,49.4867221 52.6279098,49.6676364 C52.4291442,49.8862654 52.318749,50.1736357 52.3189082,50.472 L52.3313681,50.472 Z M57.9158208,52.5974545 L57.9158208,50.3803636 C57.9381498,50.1198429 57.8643829,49.8602001 57.7089892,49.6523636 C57.5639417,49.492209 57.3565955,49.40637 57.1433173,49.4181818 C56.5934277,49.4181818 56.3176523,49.7338182 56.315991,50.3650909 L56.315991,52.5974545 L55.7029721,52.5974545 L55.7029721,48.9294545 L56.315991,48.9294545 L56.315991,49.3036364 C56.5291505,49.0001944 56.8777009,48.8269625 57.2429952,48.8429091 C57.6037282,48.8181221 57.955896,48.9623887 58.1999028,49.2349091 C58.4191941,49.4894545 58.5263478,49.912 58.5263478,50.4872727 L58.5263478,52.5974545 L57.9158208,52.5974545 Z M60.2906461,52.684 C59.7922567,52.684 59.5389088,52.3921212 59.5306023,51.8083636 L59.5306023,47.7178182 L60.1411293,47.4149091 L60.1411293,48.9294545 L61.0282623,48.9294545 L61.0282623,49.4741818 L60.1411293,49.4741818 L60.1411293,51.5996364 C60.1339219,51.7294487 60.1614907,51.8588125 60.2208716,51.9738182 C60.2895425,52.0669183 60.4016733,52.1154516 60.5149213,52.1010909 C60.7072439,52.0905863 60.8924688,52.0233931 61.0481979,51.9076364 L60.9784234,52.5185455 C60.7619697,52.6319213 60.5213937,52.6887655 60.2781863,52.684 L60.2906461,52.684 Z M62.5333982,48.1505455 C62.4604591,48.2239659 62.3616724,48.2643291 62.259284,48.2625455 C62.1569457,48.2653933 62.0582282,48.2237633 61.9876618,48.148 C61.917604,48.0755828 61.8789906,47.9774352 61.8805081,47.8756364 C61.878924,47.769086 61.9193316,47.6663566 61.9926457,47.5905455 C62.0610456,47.5143656 62.1581025,47.4717443 62.259284,47.4734545 C62.3627451,47.4711824 62.4623201,47.513717 62.5333982,47.5905455 C62.6067123,47.6663566 62.6471199,47.769086 62.6455358,47.8756364 C62.6441275,47.9817441 62.5977699,48.082021 62.5184465,48.1505455 L62.5333982,48.1505455 Z M61.9577585,52.5974545 L61.9577585,48.9294545 L62.5682854,48.9294545 L62.5682854,52.5974545 L61.9577585,52.5974545 Z M64.4322616,52.684 C63.9338722,52.684 63.6846776,52.3921212 63.6846776,51.8083636 L63.6846776,47.7178182 L64.2952045,47.4149091 L64.2952045,48.9294545 L65.1798456,48.9294545 L65.1798456,49.4741818 L64.2952045,49.4741818 L64.2952045,51.5996364 C64.2873572,51.7292043 64.3140548,51.8585208 64.3724549,51.9738182 C64.4414506,52.0664924 64.5533302,52.114917 64.6665046,52.1010909 C64.8595197,52.0902132 65.0454439,52.02308 65.2022731,51.9076364 L65.1324986,52.5185455 C64.9115352,52.6343053 64.6655393,52.6912149 64.4173099,52.684 L64.4322616,52.684 Z M66.520513,53.9898182 L67.0662493,52.5032727 L65.7405336,48.9396364 L66.3510606,48.9396364 L67.2431775,51.4367273 C67.2864319,51.5517754 67.3238607,51.6690214 67.3553151,51.788 C67.3867696,51.6690214 67.4241983,51.5517754 67.4674527,51.4367273 L68.3745214,48.9396364 L69,48.9396364 L67.1385158,54 L66.520513,53.9898182 Z"
                        id="Shape"></path>
                    <path
                        d="M19.5712047,14.2875989 C17.5927085,11.8344767 14.9953109,10.6079156 11.7790118,10.6079156 C9.33986075,10.6079156 7.39367669,11.4609938 5.94045964,13.1671504 L5.94045964,0.418601583 L0,3.13073879 L0,37.3833773 L1.80202228,37.3833773 L5.94045964,35.3781003 C7.32739541,37.1243624 9.24126734,37.9983289 11.6820754,38 C15.0673918,38 17.7244426,36.8051891 19.6532278,34.4155673 C21.582013,32.0259455 22.5447486,28.6462181 22.541443,24.2763852 C22.541443,20.0770009 21.5513579,16.7474055 19.5712047,14.2875989 Z M15.1618426,30.1317942 C14.19745,31.5555409 12.8014006,32.2665787 10.9736943,32.2649106 C8.70687453,32.2649106 7.0316152,31.4293755 5.94791629,29.7583113 L5.94791629,18.8420844 C7.05647068,17.1426121 8.73173001,16.292876 10.9662376,16.292876 C12.7608033,16.292876 14.147739,16.9846966 15.1295305,18.3507916 C16.1113219,19.7168865 16.6009749,21.694591 16.6009749,24.2889182 C16.6009749,26.7721196 16.1212641,28.7197449 15.1618426,30.1317942 Z M62.9986988,22.4265172 C62.9986988,18.4059367 61.9406839,15.3503958 59.824654,13.2598945 C57.7086242,11.1693931 54.9927488,10.1316623 51.6770278,10.1465407 C48.0199582,10.1465407 45.108553,11.3665787 42.9428122,13.8063325 C40.7770714,16.2460862 39.694201,19.5815303 39.694201,23.8126649 C39.694201,28.0788918 40.7712718,31.4318821 42.9254134,33.8716359 C45.079555,36.3113896 47.9992453,37.532102 51.6844844,37.5337731 C55.5735385,37.5337731 58.6531324,36.1651715 60.9232662,33.4279683 L55.7781819,30.9539578 C54.5952867,31.8345931 53.1542274,32.2907781 51.6844844,32.2498681 C50.11968,32.2750975 48.6101801,31.6665455 47.4938506,30.5604222 C46.3281286,29.4424802 45.6918283,27.9510554 45.5899208,26.1062005 L62.8023405,26.1062005 C62.9446839,24.8850435 63.0102676,23.6560271 62.9986988,22.4265172 L62.9986988,22.4265172 Z M45.6346607,21.1456464 C45.7688803,19.207212 46.3861247,17.7675901 47.4863939,16.826781 C48.5874917,15.889314 49.9719419,15.4105541 51.6770278,15.4105541 C53.0548724,15.3844026 54.3870627,15.908816 55.3829798,16.8693931 C56.3970834,17.8419525 56.9737305,19.2757256 57.1079501,21.1456464 L45.6346607,21.1456464 Z M38.1481902,16.0271768 L38.1481902,10.8034301 L32.1580196,10.8034301 L32.1580196,0 L26.21756,2.86754617 L26.21756,30.8737467 C26.21756,35.3455145 28.2308538,37.5813984 32.2574415,37.5813984 C33.378108,37.5939081 34.4957505,37.4616542 35.5831047,37.1878628 L35.5831047,32.0844327 C35.1738422,32.1658393 34.7574671,32.20531 34.3403307,32.2022427 C32.8837996,32.2022427 32.1563626,31.3667106 32.1580196,29.6956464 L32.1580196,17.2629288 L29.6053618,16.0422164 L32.1580196,16.0422164 L38.1481902,16.0271768 Z"
                        id="Shape"></path>
                </g>
            </g>
        </g>
    </g>
</svg>