<svg width="1440" height="514" xmlns="http://www.w3.org/2000/svg" xmlns:xlink="http://www.w3.org/1999/xlink"><defs><linearGradient x1="0%" y1="50%" x2="99.998%" y2="50%" id="c"><stop stop-color="#256606" stop-opacity="0" offset="14%"/><stop stop-color="#256606" stop-opacity=".3" offset="21%"/><stop stop-color="#DF8601" stop-opacity=".4" offset="75%"/><stop stop-color="#DF8601" stop-opacity="0" offset="96%"/></linearGradient><linearGradient x1="1.857%" y1="50%" x2="101.855%" y2="50%" id="d"><stop stop-color="#256606" stop-opacity="0" offset="12%"/><stop stop-color="#256606" stop-opacity=".9" offset="30%"/><stop stop-color="#DF8601" offset="66%"/><stop stop-color="#DF8601" stop-opacity="0" offset="100%"/></linearGradient><path id="a" d="M0 0h1440v514H0z"/></defs><g fill="none" fill-rule="evenodd"><mask id="b" fill="#fff"><use xlink:href="#a"/></mask><use fill="#191919" xlink:href="#a"/><g opacity=".403" mask="url(#b)" fill-rule="nonzero"><path d="M60.915 426.956c.16-.225.29-.18.29.095v313.66c0 .275-.14.675-.31.89l-5.23 6.87c-.165.22-.295.18-.295-.095v-313.06c0-.275.13-.685.285-.91l5.26-7.45ZM43.18 452.74c-.15.23-.275.645-.275.92v312.305c0 .275.125.31.275.08l5.265-7.6c.16-.22.295-.63.295-.905v-312.6c0-.275-.125-.315-.28-.085l-5.28 7.89v-.005Zm24.945-35.77c-.16.225-.29.63-.29.905V732.74c0 .275.145.325.32.115l5.18-5.86c.185-.205.34-.595.34-.87V409.91c0-.275-.135-.32-.3-.1l-5.245 7.16h-.005Zm12.485-16.82c-.17.215-.31.615-.31.89v317.87c0 .275.16.34.35.145l5.125-5.01c.195-.19.36-.575.36-.85v-319.52c0-.275-.14-.325-.315-.11l-5.21 6.585Zm12.465-15.635c-.17.215-.315.615-.315.89V707.03c0 .275.17.35.37.165l5.075-4.315c.215-.17.39-.535.39-.81V378.34c0-.275-.145-.325-.32-.115l-5.205 6.29h.005Zm12.48-14.87c-.18.205-.33.6-.33.875v326.29c0 .275.175.36.395.195l5.03-3.77c.225-.155.415-.505.415-.78v-328.7c0-.275-.15-.33-.33-.125l-5.175 6.015h-.005Zm12.465-13.98c-.18.205-.33.6-.33.875v331.4c0 .275.19.375.415.225l4.995-3.22a1 1 0 0 0 .425-.765V350.226c0-.275-.155-.335-.345-.14l-5.16 5.575v.005Zm12.49-13.205a1.381 1.381 0 0 0-.355.85v337.265c0 .275.195.385.43.25l4.96-2.68a.894.894 0 0 0 .445-.725V337.596c0-.275-.16-.345-.36-.15l-5.125 5.015h.005Zm12.465-12.175c-.195.19-.36.575-.36.85V674.26c0 .275.205.41.46.305l4.91-2.025a.79.79 0 0 0 .465-.68V325.72c0-.275-.17-.35-.37-.165l-5.105 4.73Zm12.48-11.41c-.205.185-.37.56-.37.835v349.585c0 .275.21.425.47.335l4.88-1.51a.692.692 0 0 0 .485-.63V314.746c0-.278-.175-.36-.39-.19l-5.075 4.315v.005Zm12.485-10.65c-.215.17-.395.53-.395.805v356.51c0 .275.215.44.48.37l4.865-1.26a.651.651 0 0 0 .485-.61V304.52c0-.275-.175-.36-.395-.195l-5.05 3.895.01.005Zm12.47-9.61c-.22.165-.4.525-.4.8V662.83c0 .275.22.455.49.405l4.85-.88c.27-.04.495-.3.495-.575V295.2c0-.275-.185-.375-.415-.22l-5.02 3.63v.005Zm12.47-8.86c-.225.16-.41.51-.41.785v370.49c0 .275.225.475.495.44l4.84-.505c.275-.02.5-.265.5-.54V286.63c0-.275-.19-.375-.415-.225l-5.01 3.345v.005Zm12.48-8.095a1 1 0 0 0-.425.765v377.7c0 .275.225.49.5.48l4.835-.13c.275 0 .5-.225.5-.5v-381.01c0-.275-.195-.39-.435-.25l-4.98 2.945h.005Zm12.475-7.2c-.24.135-.435.475-.435.75v385.065c0 .275.225.5.5.5l4.84.111c.275.019.5-.186.5-.461V272.05c0-.275-.2-.4-.445-.275l-4.955 2.685h-.005Zm12.475-6.445a.894.894 0 0 0-.445.725v392.29c0 .275.225.515.5.54l4.84.358a.44.44 0 0 0 .495-.448V265.886c0-.275-.205-.405-.455-.29l-4.94 2.42h.005Zm12.475-5.695a.846.846 0 0 0-.455.705V662.53c0 .275.22.535.495.575l4.85.88c.27.05.49-.13.49-.405V260.626c0-.275-.21-.42-.465-.32l-4.915 2.015Zm12.475-4.935a.79.79 0 0 0-.465.68v406.87c0 .275.22.545.49.595l4.86.995c.27.06.485-.115.485-.39V255.96c0-.275-.21-.425-.47-.335l-4.9 1.76Zm12.475-4.325c-.265.08-.475.375-.475.65v414.235c0 .275.22.55.485.61l4.87 1.245c.265.08.475-.075.475-.35V252.056c0-.275-.215-.44-.485-.37l-4.875 1.375h.005Zm12.47-3.435a.692.692 0 0 0-.485.63V671.55c0 .275.215.56.485.63l4.88 1.51c.26.09.47-.06.47-.335v-424.46c0-.275-.22-.455-.49-.405l-4.86 1.13v.005Zm12.47-2.82a.63.63 0 0 0-.49.595v428.36c0 .275.215.565.48.645l4.885 1.645c.26.09.47-.06.47-.335V246.19c0-.275-.22-.455-.49-.405l-4.855 1.015v.005Zm12.465-2.085c-.27.04-.495.3-.495.575V680.42c0 .275.21.58.465.68l4.905 1.895c.255.1.465-.045.465-.32v-438.14a.457.457 0 0 0-.5-.462l-4.845.642.005.005Zm12.47-1.615a.552.552 0 0 0-.5.54v442.04c0 .275.21.585.46.695l4.93 2.285c.245.125.445 0 .445-.275V243.186a.457.457 0 0 0-.5-.462l-4.84.377.005.005Zm12.465-.88a.526.526 0 0 0-.5.52v448.8c0 .275.205.595.455.71l4.945 2.405c.24.13.44.015.44-.26V242.58a.48.48 0 0 0-.5-.48l-4.835.11-.005.015Zm12.465-.28c-.275 0-.5.225-.5.5V697.71c0 .275.2.6.445.725l4.95 2.54c.24.13.44.015.44-.26V242.58a.526.526 0 0 0-.5-.52l-4.835-.13v.015Zm12.465.32a.479.479 0 0 0-.5.48v461.58c0 .275.2.61.44.74l4.96 2.68c.24.13.44.015.44-.26v-464.45a.555.555 0 0 0-.5-.54l-4.84-.24v.01Zm12.46.77a.457.457 0 0 0-.5.46V711.39c0 .275.195.615.43.75l4.98 2.945c.235.145.425.035.425-.24v-470.91a.555.555 0 0 0-.5-.54l-4.84-.375.005.015Zm12.365 1.37a.437.437 0 0 0-.495.445v473.91c0 .275.19.615.425.76l5.09 3.23c.23.15.42.045.42-.23V245.44a.574.574 0 0 0-.495-.555l-4.94-.49-.005.01Zm12.46 1.675a.42.42 0 0 0-.495.425v480.07c0 .275.19.62.42.77l5.095 3.215c.23.15.42.045.42-.23V247.546c0-.275-.22-.54-.49-.595l-4.95-.885v.015Zm12.46 2.275c-.27-.05-.49.13-.49.405v485.935c0 .275.19.62.42.77l5.1 3.355c.225.155.415.055.415-.22V249.95c0-.275-.22-.55-.485-.61l-4.955-1-.005.015Zm12.46 2.575c-.27-.06-.485.115-.485.39v491.795c0 .275.185.625.415.78l5.11 3.495c.225.155.415.055.415-.22V252.656c0-.275-.22-.55-.485-.61l-4.96-1.13-.01.015Zm12.46 3.025c-.265-.07-.485.095-.485.37v497.51c0 .275.18.63.405.795l5.125 3.625c.225.16.405.07.405-.205V255.81a.685.685 0 0 0-.485-.63l-4.97-1.245.005.02Zm12.46 3.325c-.265-.08-.48.08-.48.355v503.22c0 .275.18.63.405.795l5.13 3.765c.22.165.4.075.4-.2V259.27a.685.685 0 0 0-.485-.63l-4.975-1.381.005.02Zm12.465 3.745c-.265-.07-.48.095-.48.37v508.65c0 .275.18.63.405.795l5.03 3.77c.22.165.4.075.4-.2V263.18a.753.753 0 0 0-.47-.665l-4.88-1.506-.005.016Zm12.46 3.925c-.265-.08-.475.075-.475.35v514.195c0 .275.18.635.4.8l5.05 3.895c.215.175.385.09.385-.185v-516.77a.745.745 0 0 0-.475-.66l-4.885-1.646v.02Zm12.46 4.225c-.26-.09-.47.06-.47.335v519.605c0 .275.175.64.395.805l5.05 3.89c.215.17.39.087.39-.19V271.6a.79.79 0 0 0-.465-.68l-4.9-1.76v.015Zm12.46 4.375c-.255-.1-.465.045-.465.32v525.02c0 .275.175.64.395.805l5.055 4.035c.215.175.385.09.385-.185V276.11a.79.79 0 0 0-.465-.68l-4.905-1.89v.01Zm12.465 4.66c-.255-.1-.465.045-.465.32v530.28c0 .275.175.645.385.815l5.06 4.18c.215.175.385.09.385-.185V280.77a.79.79 0 0 0-.465-.68l-4.905-1.89.005.01Zm12.465 4.81c-.255-.1-.465.045-.465.32v535.545c0 .275.17.645.38.825l5.065 4.175c.215.17.39.087.39-.19V285.58a.79.79 0 0 0-.465-.68l-4.905-1.895v.015Zm12.455 4.825c-.255-.11-.46.03-.46.305v541.11c0 .275.175.645.385.815l5.065 4.18c.215.175.385.09.385-.185V290.54a.79.79 0 0 0-.465-.68l-4.91-2.03v.015Zm12.47 5.095c-.255-.1-.465.045-.465.32v546.37c0 .275.175.645.385.815l5.065 4.325c.21.175.385.092.385-.18V295.5a.79.79 0 0 0-.465-.68l-4.905-1.895v.015Zm12.46 4.975c-.255-.11-.46.03-.46.305v551.935c0 .275.175.645.385.815l5.075 4.315c.205.18.375.105.375-.17v-554.5a.79.79 0 0 0-.465-.68l-4.91-2.025v.005Zm12.47 5.24c-.255-.1-.465.045-.465.32V860.68c0 .275.17.645.38.825l5.075 4.31c.21.18.38.096.38-.175V305.726a.79.79 0 0 0-.465-.68l-4.905-1.895v.005Zm12.455 5.13c-.255-.11-.46.03-.46.305v562.76c0 .275.17.645.38.825l5.075 4.31c.21.18.38.096.38-.175V310.986c0-.275-.205-.59-.46-.695l-4.915-2.01v.005Zm12.465 5.11c-.255-.105-.46.03-.46.305v568.325c0 .275.175.645.385.82l5.075 4.315c.21.18.38.096.38-.175v-570.89c0-.275-.205-.59-.46-.695l-4.915-2.015-.005.01Zm12.47 5.1c-.255-.1-.465.045-.465.32V892.7c0 .275.175.645.385.82l5.075 4.315c.21.18.38.096.38-.175V321.21c0-.275-.205-.59-.46-.695l-4.91-2.025-.005.005Zm12.465 4.96c-.255-.1-.465.045-.465.32v579.6c0 .275.17.645.38.825l5.075 4.31c.21.18.38.096.38-.175V326.17c0-.275-.205-.59-.46-.695l-4.91-2.025v.005Zm12.465 4.955c-.255-.1-.465.045-.465.32v585.32c0 .275.17.65.37.835l5.08 4.46c.21.175.385.092.385-.18V330.98a.79.79 0 0 0-.465-.68l-4.905-1.895v.005Zm12.47 4.8c-.26-.09-.47.06-.47.335v591.33c0 .275.17.645.38.825l5.085 4.45c.205.185.37.11.37-.165V335.64a.753.753 0 0 0-.47-.665l-4.895-1.775v.01Zm12.465 4.66c-.26-.09-.47.06-.47.335V935.7c0 .275.17.645.38.825l5.075 4.31c.21.18.38.096.38-.175V340.306a.79.79 0 0 0-.465-.68l-4.9-1.76v.005Zm12.46 4.375c-.255-.1-.465.045-.465.32V946.37c0 .275.175.645.385.82l5.075 4.315c.21.18.38.096.38-.175V344.66a.753.753 0 0 0-.47-.665l-4.9-1.76-.005.01Zm12.47 4.345c-.26-.09-.47.06-.47.335v609.97c0 .275.17.645.38.825l5.075 4.31c.21.18.38.096.38-.175V348.87a.753.753 0 0 0-.47-.665l-4.89-1.625-.005.01Zm12.47 4.04c-.265-.08-.475.075-.475.35v616.44c0 .275.17.645.38.825l5.075 4.31c.21.18.38.096.38-.175v-619.6a.717.717 0 0 0-.48-.645l-4.88-1.51v.005Zm12.465 3.905c-.265-.08-.48.08-.48.355v623.055c0 .275.17.645.38.825l5.075 4.31c.21.18.38.096.38-.175V356.54a.687.687 0 0 0-.48-.63l-4.875-1.375Zm12.47 3.595c-.265-.07-.48.095-.48.37v629.965c0 .275.175.64.385.815l5.07 4.17c.21.18.38.096.38-.175V360.15a.687.687 0 0 0-.48-.63l-4.87-1.39h-.005Zm12.47 3.44c-.27-.065-.485.11-.485.385V998.69c0 .275.175.645.385.82l5.065 4.175c.215.175.385.09.385-.185V363.306c0-.275-.22-.55-.485-.61l-4.86-1.13-.005.005Zm12.465 3.005c-.27-.065-.485.11-.485.385v643.955c0 .275.175.645.385.815l5.055 4.035c.215.17.395.086.395-.195V366.31c0-.275-.22-.55-.485-.61l-4.86-1.13-.005.005Zm12.465 2.705c-.27-.065-.485.11-.485.385v651.32c0 .275.175.64.39.81l5.06 4.18c.215.175.385.09.385-.185V369.016c0-.275-.22-.55-.485-.615l-4.86-1.125-.005.005Zm12.465 2.405c-.27-.065-.485.11-.485.385v658.84c0 .275.175.64.39.81l5.05 4.04c.215.17.395.086.395-.195V371.12a.598.598 0 0 0-.495-.575l-4.855-.86Zm12.47 2.214a.426.426 0 0 0-.495.43v666.35c0 .276.18.636.4.806l5.045 3.9c.215.17.395.086.395-.195V373.226a.598.598 0 0 0-.495-.575l-4.85-.75Zm12.465 1.805a.426.426 0 0 0-.495.43v674.166c0 .275.18.635.4.805l5.045 3.9c.215.17.395.086.395-.195V374.88a.583.583 0 0 0-.495-.56l-4.845-.616h-.005Zm12.465 1.488a.437.437 0 0 0-.495.443v682.14c0 .275.18.63.405.795l5.03 3.77c.22.165.4.075.4-.2V376.236a.574.574 0 0 0-.495-.555l-4.845-.488Zm12.465 1.038a.457.457 0 0 0-.5.46v690.255c0 .275.18.63.405.795l5.02 3.63c.225.16.41.06.41-.215v-694.17a.526.526 0 0 0-.5-.52l-4.84-.245.005.01Zm12.465.725c-.275 0-.5.21-.5.485v698.525c0 .275.18.63.405.795l5.02 3.63c.225.16.41.06.41-.215v-702.59c0-.275-.225-.5-.5-.5l-4.835-.13Zm12.465.3c-.275 0-.5.21-.5.485v707.095c0 .275.185.625.415.78l5.015 3.49c.225.16.41.06.41-.215V377.886c0-.275-.225-.5-.5-.5l-4.835-.13h-.005Zm12.465-.015c-.275 0-.5.225-.5.5v715.665c0 .275.185.625.415.78l5.005 3.35c.23.15.415.05.415-.225V377.586a.48.48 0 0 0-.5-.48l-4.835.13v.005Zm12.465-.47a.526.526 0 0 0-.5.52v724.38c0 .275.185.625.415.78l5.005 3.35c.23.15.415.05.415-.225v-728.59a.457.457 0 0 0-.5-.462l-4.84.242.005.005Zm12.465-.77a.552.552 0 0 0-.5.54v733.4c0 .275.19.615.425.76l4.985 3.085c.235.145.425.04.425-.235V375.936a.438.438 0 0 0-.495-.444l-4.84.509Zm12.46-1.22a.575.575 0 0 0-.495.56v742.27c0 .275.19.615.425.76l4.985 3.085c.235.145.425.04.425-.235V374.58a.424.424 0 0 0-.495-.43l-4.845.62v.01Zm12.46-1.67c-.27.04-.495.3-.495.575v751.44c0 .275.195.615.43.75l4.965 2.815c.24.13.44.015.44-.26V372.776a.424.424 0 0 0-.495-.43l-4.85.755.005.01Zm12.46-2.125a.634.634 0 0 0-.49.595v760.61c0 .275.195.615.43.75l4.965 2.815c.24.13.44.015.44-.26V370.52c0-.275-.22-.46-.49-.405l-4.855.865v.005Zm12.46-2.425a.662.662 0 0 0-.485.615v769.93c0 .275.2.61.44.74l4.95 2.69c.245.125.445 0 .445-.275V367.816c0-.275-.22-.45-.485-.39l-4.86 1.13-.005.005Zm12.465-3.005a.662.662 0 0 0-.485.615v779.55c0 .275.2.6.45.72l4.94 2.56c.245.125.445 0 .445-.275V364.66c0-.275-.215-.44-.48-.37l-4.865 1.26-.005.005Zm12.455-3.34c-.265.08-.475.375-.475.65v789.17c0 .275.205.595.455.705l4.92 2.15c.255.11.46-.03.46-.305V361.2c0-.275-.215-.44-.48-.37l-4.875 1.375-.005.01Zm12.46-3.775c-.26.09-.47.39-.47.665v798.645c0 .275.205.595.455.71l4.92 2.15c.255.105.46-.03.46-.305V357.14c0-.275-.215-.425-.475-.34l-4.89 1.625v.015Zm12.46-4.225a.79.79 0 0 0-.465.68v808.265c0 .275.21.585.46.695l4.91 2.03c.255.1.465-.045.465-.32V352.63c0-.275-.21-.42-.465-.32l-4.905 1.895v.01Zm12.46-4.675a.82.82 0 0 0-.46.695v818.035c0 .275.21.58.465.68l4.905 1.89c.255.1.465-.045.465-.32v-822.7c0-.275-.21-.42-.465-.32l-4.91 2.03v.01Zm12.465-5.26a.82.82 0 0 0-.46.695v827.96c0 .275.21.575.47.665l4.885 1.64c.265.08.475-.075.475-.35V342.556c0-.275-.205-.41-.46-.305l-4.915 2.01.005.02Zm12.45-5.44a.894.894 0 0 0-.445.725v837.425c0 .275.21.575.47.665l4.88 1.505c.265.07.48-.095.48-.37V336.696c0-.275-.205-.405-.455-.29l-4.94 2.42.01.015Zm12.365-6.01a.883.883 0 0 0-.45.72v847.2c0 .275.215.565.48.645l4.97 1.395c.27.06.485-.115.485-.39V330.38c0-.275-.2-.395-.44-.265l-5.045 2.7v.015Zm12.455-6.48a.913.913 0 0 0-.44.735v856.975c0 .275.215.56.485.63l4.96 1.138c.27.042.49-.138.49-.413v-861.5c0-.275-.2-.395-.44-.265l-5.05 2.69-.005.01Zm12.455-6.93c-.24.135-.435.475-.435.75v866.745c0 .275.22.55.485.61l4.955 1.008c.27.042.49-.138.49-.413V316.7c0-.275-.19-.385-.425-.24l-5.075 2.95.005.01Zm12.455-7.38a.991.991 0 0 0-.425.76v876.37c0 .275.22.54.49.595l4.95.89a.426.426 0 0 0 .495-.43V309.18c0-.275-.19-.385-.425-.24l-5.08 3.09-.005.01Zm12.465-7.82a.991.991 0 0 0-.425.76v885.995c0 .275.22.535.495.575l4.94.641c.275.019.5-.186.5-.461V301.216c0-.275-.19-.38-.42-.23l-5.09 3.225v.01Zm12.455-8.135c-.23.15-.415.5-.415.775v895.465c0 .275.225.515.5.54l4.84.245a.48.48 0 0 0 .5-.48V292.946c0-.275-.185-.375-.415-.22l-5.005 3.35-.005.01Zm12.45-8.59c-.22.165-.4.525-.4.8v904.635c0 .275.225.515.5.54l4.84.11c.275 0 .5-.225.5-.5V283.926c0-.282-.18-.365-.4-.195l-5.035 3.76-.005.005Zm12.465-9.17c-.22.165-.4.525-.4.8v914.105c0 .275.225.49.5.48l4.835-.11c.275-.01.5-.245.5-.52V274.756c0-.282-.18-.365-.4-.195l-5.035 3.76v.005Zm12.455-9.48c-.215.17-.395.53-.395.805v922.98c0 .275.225.49.5.48l4.84-.245c.275-.02.5-.265.5-.54v-927.34c0-.274-.175-.355-.385-.185l-5.055 4.035-.005.01Zm12.465-10.07c-.215.17-.395.53-.395.805v931.995c0 .275.225.475.495.444l4.845-.62c.27-.04.495-.3.495-.574V254.76c0-.273-.175-.355-.385-.18l-5.06 4.185.005.01Zm12.45-10.24c-.21.18-.38.55-.38.825v940.41c0 .275.22.465.495.43l4.85-.885c.27-.055.49-.32.49-.595V244.236c0-.268-.17-.35-.375-.17l-5.08 4.455v.015Zm12.455-10.985c-.205.185-.37.56-.37.835v948.98c0 .275.22.45.485.39l4.86-1.13a.662.662 0 0 0 .485-.615v-952.9c0-.275-.165-.345-.365-.16l-5.1 4.585.005.015Zm12.46-11.28c-.205.185-.37.56-.37.835v957.255c0 .275.215.435.475.35l4.88-1.505c.265-.08.475-.375.475-.65v-960.87c0-.275-.165-.345-.365-.16l-5.1 4.735.005.01Zm12.455-11.59c-.195.19-.36.575-.36.85v964.92c0 .275.215.425.475.34l4.89-1.78c.26-.09.47-.39.47-.665V209.81c0-.275-.16-.345-.36-.15l-5.12 5.015.005.005Zm12.465-12.18c-.195.19-.36.575-.36.85v972.44c0 .275.21.42.465.32l4.91-2.025a.82.82 0 0 0 .46-.695V197.63c0-.275-.16-.34-.355-.15l-5.125 5.01.005.01Zm12.45-12.49c-.19.2-.345.585-.345.86v979.66c0 .275.2.4.445.275l4.935-2.42a.854.854 0 0 0 .455-.71V184.85c0-.275-.155-.335-.345-.14l-5.145 5.29v.01Zm12.47-13.075c-.19.195-.35.585-.35.86v986.42c0 .275.2.395.44.265l4.965-2.82c.235-.14.43-.475.43-.75V171.62c0-.275-.15-.335-.34-.13l-5.15 5.44.005.005Zm12.445-13.245c-.18.205-.33.6-.33.875v992.58c0 .275.195.385.43.25l4.985-3.08c.23-.15.415-.5.415-.775V158.09c0-.275-.15-.33-.33-.125l-5.175 5.715.005.01Zm12.465-13.83c-.18.205-.33.6-.33.875v998.595c0 .275.185.37.41.215l5.02-3.485c.225-.16.41-.51.41-.785V144.11c0-.275-.15-.33-.33-.125l-5.175 5.865-.005.01Zm12.46-14.135c-.18.21-.325.605-.325.88V1140.46c0 .279.175.36.395.195l5.035-3.76c.225-.16.405-.52.405-.795V129.676c0-.275-.145-.33-.325-.12l-5.19 6.155.005.015Zm12.465-14.735c-.18.21-.325.605-.325.88v1008.815c0 .271.17.355.38.175l5.075-4.31c.21-.18.38-.55.38-.825V114.946c0-.275-.145-.33-.325-.12l-5.19 6.155.005.01Zm12.465-15.035c-.18.21-.325.605-.325.88v1013.03c0 .268.17.35.375.17l5.095-4.59c.2-.19.365-.565.365-.84V99.61c0-.275-.14-.32-.305-.105l-5.205 6.44v.01Zm12.455-15.345c-.17.215-.315.615-.315.89v1016.635c0 .275.16.34.35.145l5.135-5.15c.195-.195.35-.58.35-.855V84.126c0-.275-.14-.325-.31-.11l-5.21 6.585v.01Zm12.455-15.645c-.165.22-.3.625-.3.9V1095.36c0 .275.15.335.34.13l5.16-5.725c.185-.205.335-.595.335-.87V68.19c0-.275-.14-.32-.305-.105l-5.23 6.875v.005Zm12.465-16.385c-.165.22-.3.625-.3.9v1021.895c0 .275.145.33.325.12l5.195-6.15c.175-.21.32-.61.32-.885V51.8c0-.275-.14-.32-.305-.105l-5.23 6.875-.005.01Zm12.465-16.69c-.165.22-.3.625-.3.9v1023.555c0 .275.14.32.305.105l5.225-6.73c.17-.215.305-.62.305-.895V34.966c0-.275-.135-.32-.295-.095l-5.24 7.015v.005Zm12.455-16.845c-.16.225-.29.63-.29.905v1024.155c0 .275.13.315.29.095l5.25-7.305c.16-.22.295-.63.295-.905V17.826c0-.275-.13-.315-.29-.095l-5.255 7.305v.01Zm12.465-17.44c-.16.225-.29.63-.29.905v1024.005c0 .275.125.315.28.085l5.275-7.89c.155-.23.28-.64.28-.915V.236c0-.275-.13-.315-.285-.09l-5.26 7.45v.01Z" fill="url(#c)" transform="translate(125.09 -251.54)"/><path d="M17.945 457.036c.195-.195.355-.13.355.145v222.25c0 .275-.17.65-.375.83l-5.105 4.76c-.2.19-.36.125-.36-.15V463.05c0-.275.155-.66.35-.86l5.135-5.155ZM.34 475.196c-.185.2-.34.59-.34.865v221.29c0 .275.155.335.34.135l5.135-5.26c.195-.19.36-.575.36-.85v-221.5c0-.275-.155-.335-.345-.14l-5.15 5.46Zm24.94-25.37c-.195.195-.355.58-.355.855v223.1c0 .275.17.355.38.175l5.06-4.06c.215-.17.395-.53.395-.805V445.02c0-.275-.165-.345-.365-.16l-5.12 4.96.005.005ZM37.765 437.9c-.205.185-.375.555-.375.83v225.235c0 .275.185.37.405.21l5.02-3.475c.225-.155.41-.51.41-.785V433.5c0-.275-.17-.35-.375-.17l-5.09 4.565.005.005Zm12.465-11.09c-.205.18-.375.555-.375.83v227.9c0 .275.19.38.42.23l4.98-3.005a.945.945 0 0 0 .435-.745v-229.4c0-.275-.17-.355-.38-.175l-5.08 4.355v.01Zm12.48-10.545c-.215.175-.39.54-.39.815v231.21c0 .275.195.39.44.26l4.95-2.635a.883.883 0 0 0 .45-.72v-232.92c0-.277-.175-.36-.39-.185l-5.055 4.175h-.005Zm12.465-9.92c-.215.17-.39.54-.39.815v234.835c0 .275.205.405.45.285l4.925-2.25a.832.832 0 0 0 .455-.7V402.676c0-.275-.18-.365-.4-.2l-5.045 3.87h.005Zm12.485-9.36c-.225.16-.41.51-.41.785v238.995c0 .275.21.415.46.31l4.905-1.88a.765.765 0 0 0 .47-.67v-240.81c0-.275-.185-.37-.41-.215l-5.015 3.48v.005Zm12.465-8.64c-.225.155-.41.51-.41.785v243.155c0 .275.215.435.48.355l4.875-1.43a.698.698 0 0 0 .48-.635V385.29c0-.275-.19-.38-.42-.23l-5.005 3.285Zm12.475-8.09c-.23.15-.42.495-.42.77v247.74c0 .275.22.445.485.38l4.86-1.065a.63.63 0 0 0 .49-.595v-249.98c0-.275-.195-.39-.435-.255l-4.98 3.005Zm12.48-7.545c-.24.135-.44.465-.44.74V626.1c0 .275.22.455.49.405l4.85-.89a.613.613 0 0 0 .495-.58V370.25c0-.275-.195-.39-.44-.26l-4.96 2.715.005.005Zm12.47-6.815a.918.918 0 0 0-.445.735v257.55c0 .275.225.47.495.43l4.845-.625a.57.57 0 0 0 .495-.555V363.636c0-.275-.2-.4-.45-.28l-4.945 2.535.005.005Zm12.47-6.285c-.245.125-.45.45-.45.725V622.9c0 .275.225.48.5.461l4.84-.361a.539.539 0 0 0 .5-.53V357.556c0-.275-.205-.405-.455-.285l-4.935 2.34Zm12.475-5.74a.832.832 0 0 0-.455.7v267.69c0 .275.225.495.5.485l4.835-.095c.275 0 .5-.225.5-.5V352.116c0-.275-.21-.415-.465-.315l-4.915 2.065v.005Zm12.47-5.105c-.255.105-.465.41-.465.685v272.915c0 .275.225.5.5.5l4.835.08c.275.015.5-.195.5-.47V347.21c0-.275-.21-.425-.47-.33l-4.905 1.885h.005Zm12.47-4.57a.765.765 0 0 0-.47.67V622.9c0 .275.225.51.5.53l4.84.251c.275.019.5-.186.5-.461V342.836c0-.275-.215-.43-.475-.345l-4.89 1.7-.005.005Zm12.47-4.04a.738.738 0 0 0-.475.655v283.155c0 .275.225.525.495.555l4.845.625a.427.427 0 0 0 .495-.435V339.106c0-.275-.215-.44-.48-.365l-4.88 1.42v-.005Zm12.47-3.5a.698.698 0 0 0-.48.635v288.38c0 .275.225.53.495.57l4.845.705a.414.414 0 0 0 .495-.42v-290.73c0-.275-.22-.445-.485-.38l-4.87 1.24Zm12.47-3.07a.656.656 0 0 0-.49.61v293.61c0 .275.22.535.495.58l4.855.88c.27.06.49-.115.49-.39v-295.85c0-.275-.22-.46-.49-.405l-4.855.97-.005-.005Zm12.465-2.44a.63.63 0 0 0-.49.595v298.625c0 .275.22.54.49.595l4.86 1.065c.265.065.485-.105.485-.38v-300.86a.423.423 0 0 0-.495-.43l-4.85.8v-.01Zm12.47-2a.584.584 0 0 0-.495.565v303.64c0 .275.22.545.49.605l4.865 1.16c.265.065.485-.105.485-.38v-305.87a.423.423 0 0 0-.495-.43l-4.845.72-.005-.01Zm12.465-1.48a.57.57 0 0 0-.495.555v308.44c0 .275.215.56.485.63l4.87 1.335c.265.075.48-.09.48-.365V327.69a.467.467 0 0 0-.5-.472l-4.84.452v-.005Zm12.465-1.145a.539.539 0 0 0-.5.53v313.34c0 .275.215.565.48.64l4.885 1.61c.26.095.47-.055.47-.33V326.73a.467.467 0 0 0-.5-.472l-4.84.267.005-.005Zm12.465-.625a.518.518 0 0 0-.5.515v318.14c0 .275.215.57.475.655l4.895 1.69c.255.1.465-.045.465-.32v-320.27a.483.483 0 0 0-.5-.486l-4.835.08v-.004Zm12.465-.2c-.275 0-.5.225-.5.5v322.73c0 .275.21.575.47.67l4.9 1.785c.255.1.465-.045.465-.32V326.306a.521.521 0 0 0-.5-.515l-4.835-.095Zm12.465.224a.483.483 0 0 0-.5.486V653.62c0 .275.21.58.465.68l4.905 1.88c.255.1.465-.045.465-.32V326.626a.542.542 0 0 0-.5-.53l-4.835-.17v-.006Zm12.465.545a.469.469 0 0 0-.5.47v331.696c0 .275.21.585.46.69l4.915 2.065c.255.11.46-.025.46-.3v-333.82a.534.534 0 0 0-.5-.525l-4.84-.265.005-.011Zm12.365.97a.459.459 0 0 0-.5.46v335.966c0 .275.205.59.46.7l5.02 2.26c.25.115.455-.015.455-.29v-338.2a.552.552 0 0 0-.5-.54l-4.94-.345.005-.012Zm12.465 1.183a.44.44 0 0 0-.495.448v340.34c0 .275.205.595.455.71l5.025 2.25c.25.115.455-.015.455-.29v-342.25a.588.588 0 0 0-.495-.565l-4.945-.625v-.018Zm12.465 1.618a.427.427 0 0 0-.495.435v344.495c0 .275.205.595.455.71l5.03 2.345c.245.12.45-.005.45-.28V331.53a.608.608 0 0 0-.495-.58l-4.945-.705v-.01Zm12.46 1.825a.414.414 0 0 0-.495.42v348.655c0 .275.2.6.45.72l5.035 2.445c.245.12.45-.005.45-.28V333.45a.608.608 0 0 0-.495-.58l-4.95-.8.005-.01Zm12.46 2.145c-.27-.05-.49.13-.49.405v352.715c0 .275.2.605.445.73l5.045 2.53c.245.125.445 0 .445-.27V335.69c0-.275-.22-.54-.49-.595l-4.95-.88-.005-.01Zm12.46 2.36c-.27-.06-.49.12-.49.395v356.765c0 .275.2.605.445.73l5.05 2.63c.24.13.44.01.44-.265V338.146c0-.275-.22-.54-.49-.595l-4.955-.975v-.01Zm12.465 2.655c-.27-.05-.49.13-.49.405V700.23c0 .275.2.605.445.73l4.95 2.635c.245.13.445.01.445-.265V340.916a.674.674 0 0 0-.485-.62l-4.86-1.065-.005-.01Zm12.46 2.785c-.27-.06-.49.115-.49.39V706.95c0 .275.2.605.445.735l4.96 2.715c.24.14.43.025.43-.25V343.796a.674.674 0 0 0-.485-.62l-4.86-1.16v-.01Zm12.46 3c-.265-.065-.485.105-.485.38v368.39c0 .275.195.61.44.74l4.965 2.71c.24.135.435.02.435-.255V346.89a.698.698 0 0 0-.48-.635l-4.87-1.24-.005-.01Zm12.46 3.105c-.265-.075-.48.09-.48.365V720.71c0 .275.195.61.44.74l4.965 2.815c.24.14.43.025.43-.25V350.09a.698.698 0 0 0-.48-.635l-4.875-1.335v-.01Zm12.465 3.305c-.265-.075-.48.09-.48.365v375.97c0 .275.195.615.43.75l4.97 2.91c.24.14.43.025.43-.25V353.396a.698.698 0 0 0-.48-.635l-4.87-1.335v-.01Zm12.465 3.415c-.265-.075-.48.09-.48.365v379.7c0 .275.19.615.425.76l4.975 2.905c.24.135.435.02.435-.255V356.81a.685.685 0 0 0-.485-.63l-4.87-1.335v-.015Zm12.46 3.425c-.265-.08-.48.08-.48.355v383.645c0 .275.195.615.43.75l4.97 2.91c.24.14.43.025.43-.25V360.33a.685.685 0 0 0-.485-.63l-4.875-1.43.01-.015Zm12.47 3.615c-.265-.075-.48.09-.48.365v387.38c0 .275.195.615.43.75l4.975 3.015c.235.14.43.03.43-.245V363.85a.685.685 0 0 0-.485-.63l-4.87-1.335v-.015Zm12.46 3.53c-.265-.08-.48.08-.48.355V757.08c0 .275.195.615.43.75l4.98 3.005c.235.145.425.04.425-.235V367.476a.698.698 0 0 0-.48-.635l-4.875-1.43v-.01Zm12.47 3.72c-.265-.07-.485.095-.485.37v395.045c0 .275.19.615.425.76l4.98 3c.235.145.425.035.425-.24v-396.95a.698.698 0 0 0-.48-.635l-4.87-1.335.005-.015Zm12.46 3.64c-.265-.08-.48.08-.48.355v398.99c0 .275.19.615.425.76l4.98 3c.235.145.425.035.425-.24v-400.79a.717.717 0 0 0-.48-.645l-4.88-1.415.01-.015Zm12.465 3.625c-.265-.08-.48.085-.48.36v402.94a.98.98 0 0 0 .43.755l4.98 3.005c.235.145.425.035.425-.24v-404.74a.717.717 0 0 0-.48-.645l-4.88-1.42.005-.015Zm12.465 3.62c-.265-.075-.48.09-.48.365v406.885a.98.98 0 0 0 .43.755l4.98 3.005c.235.145.425.035.425-.24V382.09a.717.717 0 0 0-.48-.645l-4.875-1.43v-.01Zm12.465 3.52c-.265-.075-.48.09-.48.365v410.94c0 .275.19.615.425.76l4.98 3c.235.145.425.035.425-.24V385.61a.717.717 0 0 0-.48-.645l-4.875-1.43.005-.01Zm12.465 3.515c-.265-.07-.485.095-.485.37V802.4c0 .275.19.62.42.77l4.985 3.105c.235.14.43.03.43-.245V389.026a.698.698 0 0 0-.48-.635l-4.87-1.335v-.015Zm12.465 3.405c-.265-.065-.485.105-.485.38v419.26c0 .275.19.615.425.76l4.985 3.1c.23.15.42.045.42-.23V392.33a.674.674 0 0 0-.485-.62l-4.865-1.25.005-.015Zm12.465 3.305c-.265-.065-.485.105-.485.38v423.63c0 .275.19.615.425.76l4.98 3c.235.145.425.035.425-.24V395.636a.698.698 0 0 0-.48-.635l-4.87-1.24.005-.01Zm12.46 3.105c-.265-.075-.48.09-.48.365v428.11a.98.98 0 0 0 .43.755l4.98 3.005c.235.145.425.035.425-.24V398.73a.674.674 0 0 0-.485-.62l-4.87-1.24v-.015Zm12.465 3.08c-.265-.065-.485.105-.485.38V832.8c0 .275.19.615.425.76l4.98 3c.235.145.425.035.425-.24V401.716a.674.674 0 0 0-.485-.62l-4.865-1.145.005-.015Zm12.465 2.865c-.27-.06-.49.115-.49.39v437.07c0 .275.19.615.425.76l4.98 3c.235.145.425.035.425-.24V404.49a.65.65 0 0 0-.49-.605l-4.86-1.065.01-.02Zm12.465 2.77c-.27-.06-.49.12-.49.395V847.73c0 .275.19.615.425.76l4.98 3c.235.145.425.035.425-.24V407.156a.63.63 0 0 0-.49-.595l-4.855-.975.005-.015Zm12.465 2.55c-.27-.05-.49.13-.49.405v446.67c0 .275.195.615.43.75l4.975 2.9c.235.145.425.035.425-.24v-448.89a.63.63 0 0 0-.49-.595l-4.855-.985.005-.015Zm12.465 2.44a.414.414 0 0 0-.495.42v451.47a.98.98 0 0 0 .43.755l4.975 2.905c.24.14.43.025.43-.25V411.956a.608.608 0 0 0-.495-.58l-4.85-.8.005-.015Zm12.465 2.135a.414.414 0 0 0-.495.42v456.59c0 .275.195.615.43.75l4.965 2.815c.24.135.44.015.44-.26V414.09a.608.608 0 0 0-.495-.58l-4.85-.8.005-.015Zm12.465 1.92a.414.414 0 0 0-.495.42V876.85c0 .275.195.61.435.745l4.97 2.915c.24.14.43.025.43-.25V416.01a.608.608 0 0 0-.495-.58l-4.85-.795.005-.02Zm12.465 1.705a.414.414 0 0 0-.495.42v467.15c0 .275.195.61.435.745l4.965 2.82c.24.135.44.015.44-.26V417.5a.574.574 0 0 0-.495-.555l-4.845-.61-.005-.015Zm12.47 1.572a.44.44 0 0 0-.495.448v472.485c0 .275.2.605.44.735l4.96 2.72c.24.135.44.015.44-.26V418.996a.574.574 0 0 0-.495-.555l-4.845-.53-.005-.018Zm12.465 1.28a.44.44 0 0 0-.495.448v478.03c0 .275.2.605.44.735l4.96 2.72c.24.135.44.015.44-.26V420.17a.552.552 0 0 0-.5-.54l-4.84-.435-.005-.023Zm12.465 1.056a.457.457 0 0 0-.5.462v483.685c0 .275.2.605.445.73l4.95 2.635c.245.13.445.01.445-.265V421.13a.552.552 0 0 0-.5-.54l-4.84-.345v-.017Zm12.465.736a.469.469 0 0 0-.5.47v489.446c0 .275.2.605.445.73l4.945 2.535c.245.125.45 0 .45-.275V421.66a.521.521 0 0 0-.5-.515l-4.835-.17-.005-.011Zm12.465.52c-.275 0-.5.21-.5.486v495.31c0 .275.2.605.445.73l4.945 2.535c.245.125.45 0 .45-.275V422.09c0-.275-.225-.5-.5-.5l-4.835-.095-.005-.01Zm12.465.215a.483.483 0 0 0-.5.486v501.39c0 .275.2.6.45.72l4.94 2.44c.245.125.45 0 .45-.275V422.3c0-.275-.225-.5-.5-.5l-4.835-.095-.005-.006Zm12.465-.014c-.275 0-.5.225-.5.5v507.47c0 .275.2.6.45.72l4.935 2.34c.25.115.455-.01.455-.285V422.09a.483.483 0 0 0-.5-.486l-4.835.096-.005-.015Zm12.465-.335c-.275.01-.5.24-.5.515V935.53c0 .275.2.6.45.72l4.935 2.34c.25.115.455-.01.455-.285V421.66a.467.467 0 0 0-.5-.472l-4.84.172v-.01Zm12.465-.545a.539.539 0 0 0-.5.53V941.4c0 .275.205.59.46.7l4.92 2.16c.25.11.455-.025.455-.3V420.916a.459.459 0 0 0-.5-.462l-4.84.362.005-.01Zm12.465-.865a.555.555 0 0 0-.5.54v526.36c0 .275.205.59.46.7l4.92 2.16c.25.11.455-.025.455-.3V419.956a.443.443 0 0 0-.495-.448l-4.84.438v-.005Zm12.465-1.185a.57.57 0 0 0-.495.555v532.86c0 .275.21.585.46.69l4.91 1.975c.255.1.465-.045.465-.32v-535.84a.443.443 0 0 0-.495-.448l-4.84.533-.005-.005Zm12.46-1.51a.598.598 0 0 0-.495.57v539.37c0 .275.21.585.46.69l4.91 1.975c.255.1.465-.045.465-.32V417.076a.434.434 0 0 0-.495-.44l-4.845.615v-.005Zm12.46-1.72a.613.613 0 0 0-.495.58V962.09c0 .275.21.58.465.68l4.9 1.89c.26.095.47-.055.47-.33V415.156a.412.412 0 0 0-.495-.42l-4.85.8.005-.01Zm12.465-2.135a.613.613 0 0 0-.495.58v552.815c0 .275.21.575.47.665l4.895 1.8c.26.095.47-.055.47-.33V412.916c0-.275-.22-.455-.49-.405l-4.85.89v-.01Zm12.46-2.37a.656.656 0 0 0-.49.61v559.635c0 .275.215.57.475.655l4.88 1.515c.265.08.48-.08.48-.355V410.46c0-.275-.22-.455-.49-.405l-4.86.97.005-.005Zm12.46-2.68a.674.674 0 0 0-.485.62v566.36c0 .275.215.57.475.655l4.88 1.515c.265.08.48-.085.48-.36V407.586c0-.275-.22-.445-.485-.38l-4.865 1.15v-.015Zm12.46-3a.698.698 0 0 0-.48.635V979.16c0 .275.215.565.48.64l4.875 1.43c.265.075.48-.09.48-.365v-576.48c0-.275-.215-.44-.485-.37l-4.87 1.335v-.01Zm12.46-3.32a.717.717 0 0 0-.48.645v580.12c0 .275.215.56.48.635l4.87 1.335c.265.075.48-.09.48-.365V400.97c0-.275-.215-.44-.485-.37l-4.875 1.43.01-.01Zm12.465-3.735a.717.717 0 0 0-.48.645v587.16c0 .275.22.555.485.62l4.865 1.155c.27.06.49-.115.49-.39v-590.24c0-.275-.215-.435-.48-.355l-4.88 1.415v-.01Zm12.455-3.865a.765.765 0 0 0-.47.67v593.88c0 .275.22.555.485.62l4.86 1.065c.27.05.49-.13.49-.405V393.076c0-.275-.215-.43-.475-.345l-4.89 1.7v-.01Zm12.365-4.265c-.26.09-.47.39-.47.665v600.82c0 .275.22.545.49.605l4.955.99a.414.414 0 0 0 .495-.42v-604.22c0-.275-.21-.42-.47-.325l-4.995 1.9-.005-.015Zm12.46-4.6a.781.781 0 0 0-.47.675v607.755c0 .275.22.54.49.595l4.95.804a.432.432 0 0 0 .495-.44V384.012c0-.275-.21-.42-.47-.325l-5 1.885.005-.015Zm12.46-4.92c-.255.105-.465.41-.465.685v614.69c0 .275.22.535.495.58l4.945.709a.432.432 0 0 0 .495-.44V378.89c0-.274-.205-.41-.46-.3l-5.01 2.07v-.024Zm12.46-5.235a.827.827 0 0 0-.46.7v621.51c0 .275.225.53.495.565l4.94.628a.44.44 0 0 0 .495-.448v-624.8c0-.275-.205-.41-.46-.3l-5.015 2.165.005-.02Zm12.465-5.545a.827.827 0 0 0-.46.7V998.89c0 .275.225.525.495.555l4.94.455c.275.015.5-.2.5-.475v-631.52c0-.275-.205-.405-.455-.29l-5.02 2.26v-.02Zm12.455-5.775c-.25.115-.455.44-.455.715V999.85c0 .275.225.51.5.53l4.84.17c.275 0 .5-.21.5-.485v-638.03c0-.275-.2-.4-.45-.28l-4.935 2.34v-.015Zm12.455-6.1a.918.918 0 0 0-.445.735v641.56c0 .275.225.51.5.53l4.835.08c.275 0 .5-.225.5-.5v-644.75c0-.275-.2-.395-.44-.265l-4.955 2.625.005-.015Zm12.465-6.505a.918.918 0 0 0-.445.735v648.28c0 .275.225.495.5.485l4.835-.08c.275-.01.5-.24.5-.515V349.13c0-.275-.2-.395-.44-.265l-4.955 2.625.005-.015Zm12.46-6.73c-.24.135-.44.465-.44.74v654.58c0 .275.225.495.5.485l4.84-.17a.539.539 0 0 0 .5-.53V342.196c0-.275-.195-.385-.43-.25l-4.965 2.815-.005-.015Zm12.465-7.145c-.24.135-.44.465-.44.74v660.98c0 .275.225.48.5.461l4.84-.436a.57.57 0 0 0 .495-.555V334.946c0-.275-.195-.385-.43-.245l-4.97 2.915.005-.015Zm12.455-7.27a.991.991 0 0 0-.425.76v666.95c0 .275.225.475.495.448l4.845-.628a.598.598 0 0 0 .495-.57V327.476c0-.275-.19-.38-.425-.235l-4.985 3.105v-.015Zm12.46-7.795c-.23.15-.42.495-.42.77V996.33c0 .275.22.465.495.426l4.85-.806a.613.613 0 0 0 .495-.58V319.586c0-.275-.185-.375-.415-.225l-5 3.19-.005-.015Zm12.46-8.005c-.23.15-.42.495-.42.77v678.895c0 .275.22.45.49.39l4.86-1.065c.27-.06.49-.335.49-.61V311.48c0-.275-.185-.375-.415-.225l-5 3.29-.005-.015Zm12.455-8.225c-.225.155-.41.51-.41.785v684.335c0 .275.22.445.485.38l4.865-1.255a.674.674 0 0 0 .485-.62V303.05c0-.275-.185-.37-.41-.215l-5.015 3.485v-.015Zm12.465-8.64c-.225.155-.41.51-.41.785v689.67c0 .275.215.44.48.365l4.875-1.43c.265-.08.48-.37.48-.645v-692c0-.275-.185-.37-.41-.215l-5.015 3.48v-.01Zm12.455-8.87c-.22.165-.4.525-.4.8v694.79c0 .275.21.425.47.33l4.89-1.7a.738.738 0 0 0 .475-.655V285.346c0-.275-.18-.365-.4-.2l-5.035 3.67v-.02Zm12.47-9.275c-.22.16-.405.52-.405.795v699.59c0 .275.21.42.47.325l4.905-1.98a.805.805 0 0 0 .46-.69v-701.6c0-.28-.18-.36-.395-.195l-5.035 3.775v-.02Zm12.45-9.405c-.215.17-.39.54-.39.815v703.96c0 .275.21.415.46.31l4.92-2.155c.25-.115.455-.44.455-.715V266.36c0-.277-.175-.36-.39-.185l-5.055 3.96v-.02Zm12.465-9.815c-.215.17-.39.54-.39.815v708.23c0 .275.2.4.45.275l4.94-2.435c.245-.125.45-.45.45-.725V256.44c0-.277-.175-.36-.39-.185l-5.06 4.065v-.02Zm12.46-10.03a1.22 1.22 0 0 0-.385.82v711.96c0 .275.195.39.44.26l4.955-2.625a.902.902 0 0 0 .445-.73V246.2c0-.273-.175-.355-.385-.18l-5.07 4.265v-.015Zm12.465-10.455a1.22 1.22 0 0 0-.385.82V956.12c0 .275.19.385.425.24l4.98-3a.991.991 0 0 0 .425-.76V235.746c0-.273-.175-.355-.385-.18l-5.07 4.265.01-.015Zm12.465-10.67a1.22 1.22 0 0 0-.385.82V948.44c0 .275.19.38.425.235l4.995-3.195c.23-.15.415-.5.415-.775v-719.84c0-.275-.165-.35-.37-.165l-5.085 4.46.005-.015Zm12.455-10.89c-.205.18-.375.555-.375.83V940.12c0 .275.185.37.405.21l5.025-3.575c.225-.16.405-.515.405-.79V213.88c0-.268-.17-.35-.375-.17l-5.09 4.565.005-.02Zm12.455-11.105c-.2.19-.365.565-.365.84v723.06c0 .279.18.36.395.195l5.045-3.97c.215-.17.395-.535.395-.81v-723.89c0-.275-.165-.35-.37-.16l-5.105 4.76.005-.025Zm12.465-11.625c-.2.19-.365.565-.365.84V921.13c0 .272.175.355.385.18l5.075-4.26c.21-.18.38-.55.38-.825v-725.28c0-.275-.165-.35-.37-.16l-5.105 4.76v-.02Zm12.465-11.84c-.2.19-.365.565-.365.84v725.94c0 .275.165.35.37.165l5.1-4.66c.205-.185.37-.56.37-.835V179c0-.275-.16-.345-.36-.15l-5.115 4.855v-.02Zm12.455-11.955c-.195.195-.355.58-.355.855v726.36c0 .275.16.34.355.145l5.125-5.06c.195-.19.36-.575.36-.85V166.84c0-.275-.16-.34-.355-.145l-5.13 5.055v-.02Zm12.465-12.375c-.195.195-.355.58-.355.855v726.255c0 .275.155.335.345.14l5.145-5.46c.19-.2.345-.585.345-.86V154.36c0-.275-.155-.34-.35-.14l-5.13 5.155v-.02Z" fill="url(#d)" transform="translate(125.09 -251.54)"/></g></g></svg>