<svg xmlns="http://www.w3.org/2000/svg" viewBox="0 0 1440 514"><defs><linearGradient id="b" x1="-5067.17" y1="343.21" x2="-3740.17" y2="343.21" gradientTransform="translate(5235.17 2)" gradientUnits="userSpaceOnUse"><stop offset=".14" stop-color="#2d8b00" stop-opacity="0"/><stop offset=".21" stop-color="#2d8b00" stop-opacity=".3"/><stop offset=".75" stop-color="#df8601" stop-opacity=".4"/><stop offset=".96" stop-color="#df8601" stop-opacity="0"/></linearGradient><linearGradient id="c" x1="-5085.53" y1="323.94" x2="-3758.33" y2="323.94" gradientTransform="translate(5235.17 2)" gradientUnits="userSpaceOnUse"><stop offset=".12" stop-color="#2d8b00" stop-opacity="0"/><stop offset=".3" stop-color="#2d8b00" stop-opacity=".9"/><stop offset=".66" stop-color="#df8601"/><stop offset="1" stop-color="#df8601" stop-opacity="0"/></linearGradient><clipPath id="a"><path style="fill:none" d="M0 0h1440v514H0z"/></clipPath></defs><g style="clip-path:url(#a)"><path style="fill:#fff" d="M0 0h1440v514H0z"/><g style="opacity:.4"><path d="M185.6 175.5c.3-.4.6-.4.6.2v312.9c0 .6-.3 1.4-.6 1.8l-4.6 6.1c-.3.4-.6.4-.6-.2V184c0-.6.3-1.4.6-1.8l4.6-6.7Zm-17.1 25c-.3.5-.5 1.3-.5 1.8v311.6c0 .5.2.6.5.2l4.7-6.8c.3-.4.6-1.3.6-1.8V193.6c0-.6-.3-.6-.6-.2l-4.7 7.1Zm24.9-35.8c-.3.4-.6 1.3-.6 1.8v314.1c0 .5.3.7.6.2l4.5-5.1c.4-.4.7-1.2.7-1.7V158.5c0-.6-.3-.6-.6-.2l-4.6 6.4Zm12.5-16.8c-.3.4-.6 1.2-.6 1.8v317.1c0 .5.3.7.7.3l4.4-4.3c.4-.4.7-1.1.7-1.7V142.3c0-.6-.3-.6-.6-.2l-4.6 5.8Zm12.5-15.7c-.3.4-.6 1.2-.6 1.8v320.9c0 .6.3.7.7.3l4.3-3.7c.4-.3.8-1.1.8-1.6v-323c0-.6-.3-.7-.6-.2l-4.6 5.5Zm12.5-14.8c-.4.4-.7 1.2-.7 1.8v325.5c0 .6.4.7.8.4l4.2-3.2c.5-.3.8-1 .8-1.6v-328c0-.6-.3-.7-.7-.3l-4.4 5.4Zm12.5-14c-.4.4-.7 1.2-.7 1.7v330.7c0 .5.4.8.8.4l4.2-2.7c.5-.3.8-1 .8-1.5V98.8c0-.6-.3-.7-.7-.3l-4.4 4.9Zm12.5-13.2c-.4.4-.7 1.2-.7 1.7v336.5c0 .5.4.8.9.5l4.1-2.2c.5-.2.9-.9.9-1.5v-339c0-.5-.3-.7-.7-.3l-4.5 4.3ZM268.4 78c-.4.4-.7 1.1-.7 1.7v342.4c0 .5.4.8.9.6l4-1.6c.5-.2.9-.8.9-1.4V74.3c0-.5-.3-.7-.7-.3l-4.4 4Zm12.5-11.4c-.4.4-.7 1.1-.7 1.7v348.9c0 .6.4.9.9.7l3.9-1.2c.5-.1 1-.7 1-1.3v-352c0-.5-.4-.7-.8-.4l-4.3 3.6ZM293.4 56c-.4.3-.8 1.1-.8 1.6v355.8c0 .6.4.9 1 .7l3.9-1c.5-.1 1-.7 1-1.2V53.1c0-.5-.4-.7-.8-.4l-4.3 3.3Zm12.5-9.7c-.4.3-.8 1-.8 1.6v362.7c0 .6.4.9 1 .8l3.9-.7c.5-.1 1-.6 1-1.2V43.7c0-.5-.4-.7-.8-.4l-4.3 3Zm12.4-8.8c-.5.3-.8 1-.8 1.6v369.8c0 .5.4.9 1 .9l3.8-.4c.5 0 1-.5 1-1.1V35.2c0-.5-.4-.8-.8-.4l-4.2 2.7Zm12.5-8.1c-.5.3-.8 1-.8 1.5v377c0 .5.4 1 1 1l3.8-.1c.5 0 1-.5 1-1V27.5c0-.6-.4-.8-.9-.5l-4.1 2.4Zm12.5-7.2c-.5.3-.9.9-.9 1.5v384.4c0 .5.5 1 1 1l3.8.1c.5 0 1-.4 1-.9V20.6c0-.6-.4-.8-.9-.5l-4 2.1Zm12.5-6.4c-.5.2-.9.9-.9 1.5v391.6c0 .5.4 1 1 1.1l3.8.3c.5.1 1-.3 1-.9v-395c0-.6-.4-.8-.9-.6l-4 2Zm12.5-5.7c-.5.2-.9.9-.9 1.4v398.8c0 .6.4 1.1 1 1.2l3.9.7c.5.1 1-.3 1-.8V9.1c0-.6-.4-.8-.9-.6l-4.1 1.6Zm12.5-4.9c-.5.2-.9.8-.9 1.4v406.2c0 .6.4 1.1 1 1.2l3.9.8c.5.1 1-.2 1-.8V4.5c0-.6-.4-.9-.9-.7l-4.1 1.4ZM393.3.9c-.5.2-1 .7-1 1.3v413.6c0 .5.4 1.1 1 1.2l3.9 1c.5.2 1-.2 1-.7V.5c0-.6-.4-.9-1-.7L393.3.9Zm12.4-3.4c-.5.1-1 .7-1 1.3v420.6c0 .5.4 1.1 1 1.3l3.9 1.2c.5.2.9-.1.9-.7V-2.6c0-.5-.4-.9-1-.8l-3.8.9Zm12.5-2.8c-.5.1-1 .6-1 1.2v427.7c0 .6.4 1.1 1 1.3l3.9 1.3c.5.2.9-.1.9-.7V-5.3c0-.6-.4-.9-1-.8l-3.8.8Zm12.5-2.1c-.5.1-1 .6-1 1.2v434.5c0 .5.4 1.2.9 1.4l4 1.5c.5.2.9-.1.9-.6V-7c0-.6-.4-1-1-.9l-3.8.5ZM443.2-9c-.5 0-1 .5-1 1.1v441.4c0 .6.4 1.2.9 1.4l4 1.9c.5.2.9 0 .9-.5V-8.3c0-.5-.4-1-1-.9l-3.8.2Zm12.4-.8c-.5 0-1 .5-1 1v448.2c0 .5.4 1.2.9 1.4l4.1 2c.5.3.9 0 .9-.5V-8.9c0-.6-.4-1-1-1l-3.9.1Zm12.5-.3c-.5 0-1 .4-1 1v454.6c0 .5.4 1.2.9 1.5l4.1 2.1c.5.3.9 0 .9-.5V-8.9c0-.6-.4-1-1-1l-3.9-.2Zm12.5.4c-.5 0-1 .4-1 1v461c0 .5.4 1.2.9 1.5l4.1 2.2c.5.3.9 0 .9-.5v-464c0-.6-.4-1-1-1.1l-3.9-.1ZM493-9c-.5 0-1 .4-1 .9v467.3c0 .5.4 1.2.9 1.5l4.1 2.4c.5.3.9.1.9-.5V-7.6c0-.6-.4-1-1-1.1L493-9Zm12.4 1.4c-.5-.1-1 .3-1 .9v473.3c0 .5.4 1.2.9 1.5l4.2 2.7c.5.3.8.1.8-.5V-6.1c0-.6-.4-1.1-1-1.1l-3.9-.4Zm12.5 1.7c-.5-.1-1 .3-1 .8v479.5c0 .6.4 1.2.8 1.5l4.3 2.7c.5.3.8.1.8-.5V-4c0-.5-.4-1.1-1-1.2l-3.9-.7Zm12.4 2.3c-.5-.1-1 .3-1 .8v485.3c0 .5.4 1.2.8 1.5l4.3 2.8c.5.3.8.1.8-.4v-488c0-.6-.4-1.1-1-1.2l-3.9-.8ZM542.8-1c-.5-.1-1 .2-1 .8V491c0 .5.4 1.3.8 1.6l4.3 2.9c.5.3.8.1.8-.4V1.1c0-.6-.4-1.1-1-1.2l-3.9-.9Zm12.4 3.1c-.5-.1-1 .2-1 .7v496.9c0 .5.4 1.3.8 1.6l4.3 3c.4.3.8.1.8-.4V4.3c0-.6-.4-1.1-1-1.3l-3.9-.9Zm12.5 3.3c-.5-.2-1 .2-1 .7v502.6c0 .6.4 1.3.8 1.6l4.3 3.2c.4.3.8.2.8-.4V7.8c0-.6-.4-1.1-1-1.3l-3.9-1.1Zm12.5 3.7c-.5-.1-1 .2-1 .7v508.1c0 .5.4 1.3.8 1.6l4.2 3.2c.4.3.8.1.8-.4V11.7c0-.6-.4-1.1-.9-1.3l-3.9-1.3Zm12.4 4c-.5-.2-1 .2-1 .7v513.6c0 .5.4 1.3.8 1.6l4.3 3.3c.4.3.8.2.8-.4V15.7c0-.6-.4-1.1-.9-1.3l-4-1.3Zm12.5 4.2c-.5-.2-.9.1-.9.7v519c0 .5.4 1.3.8 1.6l4.3 3.3c.4.3.8.2.8-.4V20.1c0-.5-.4-1.2-.9-1.4l-4.1-1.4Zm12.4 4.4c-.5-.2-.9.1-.9.6v524.5c0 .5.4 1.3.8 1.6l4.3 3.4c.4.3.8.2.8-.4V24.6c0-.5-.4-1.2-.9-1.4l-4.1-1.5Zm12.5 4.7c-.5-.2-.9.1-.9.6v529.7c0 .5.3 1.3.8 1.6l4.3 3.5c.4.3.8.2.8-.4V29.3c0-.5-.4-1.2-.9-1.4l-4.1-1.5Zm12.5 4.8c-.5-.2-.9.1-.9.6v535c0 .5.3 1.3.8 1.7l4.3 3.5c.4.3.8.2.8-.4V34.1c0-.5-.4-1.2-.9-1.4l-4.1-1.5Zm12.4 4.8c-.5-.2-.9.1-.9.6v540.6c0 .5.3 1.3.8 1.6l4.3 3.5c.4.3.8.2.8-.4v-543c0-.5-.4-1.2-.9-1.4l-4.1-1.5Zm12.5 5.1c-.5-.2-.9.1-.9.6v545.8c0 .5.3 1.3.8 1.6l4.3 3.7c.4.4.8.2.8-.4V44c0-.5-.4-1.2-.9-1.4l-4.1-1.5Zm12.5 5c-.5-.2-.9.1-.9.6v551.4c0 .5.3 1.3.8 1.6l4.3 3.7c.4.4.8.2.8-.3v-554c0-.5-.4-1.2-.9-1.4l-4.1-1.6Zm12.4 5.3c-.5-.2-.9.1-.9.6v556.7c0 .5.3 1.3.8 1.7l4.3 3.7c.4.4.8.2.8-.3V54.3c0-.5-.4-1.2-.9-1.4l-4.1-1.5Zm12.5 5.1c-.5-.2-.9.1-.9.6v562.2c0 .5.3 1.3.8 1.7l4.3 3.7c.4.4.8.2.8-.3V59.5c0-.5-.4-1.2-.9-1.4l-4.1-1.6Zm12.5 5.1c-.5-.2-.9.1-.9.6V630c0 .5.3 1.3.8 1.6l4.3 3.7c.4.4.8.2.8-.3V64.6c0-.6-.4-1.2-.9-1.4l-4.1-1.6Zm12.4 5.1c-.5-.2-.9.1-.9.6v573.4c0 .5.3 1.3.8 1.6l4.3 3.7c.4.4.8.2.8-.3V69.8c0-.6-.4-1.2-.9-1.4l-4.1-1.7Zm12.5 5c-.5-.2-.9.1-.9.6v579.1c0 .5.3 1.3.8 1.7l4.3 3.7c.4.4.8.2.8-.3V74.7c0-.6-.4-1.2-.9-1.4l-4.1-1.6Zm12.5 4.9c-.5-.2-.9.1-.9.6V662c0 .5.3 1.3.7 1.7l4.3 3.8c.4.4.8.2.8-.4V79.5c0-.6-.4-1.2-.9-1.4l-4-1.5Zm12.5 4.8c-.5-.2-.9.1-.9.7v590.8c0 .5.3 1.3.8 1.7l4.3 3.8c.4.4.7.2.7-.3V84.2c0-.6-.4-1.1-.9-1.3l-4-1.5Zm12.4 4.7c-.5-.2-.9.1-.9.7v597c0 .5.3 1.3.8 1.7l4.3 3.7c.4.4.8.2.8-.3v-600c0-.6-.4-1.2-.9-1.4l-4.1-1.4Zm12.5 4.4c-.5-.2-.9.1-.9.6v603.3c0 .6.3 1.3.8 1.6l4.3 3.7c.4.4.8.2.8-.3V93.2c0-.6-.4-1.1-.9-1.3l-4.1-1.4Zm12.5 4.3c-.5-.2-.9.1-.9.7V705c0 .5.3 1.3.8 1.7l4.3 3.7c.4.4.8.2.8-.3V97.4c0-.6-.4-1.1-.9-1.3l-4.1-1.3Zm12.4 4c-.5-.2-1 .2-1 .7v615.9c0 .6.3 1.3.8 1.7l4.3 3.7c.4.4.8.2.8-.3V101.4c0-.6-.4-1.1-1-1.3l-3.9-1.3Zm12.5 4c-.5-.2-1 .2-1 .7V726c0 .5.3 1.3.8 1.7l4.3 3.7c.4.4.8.2.8-.3v-626c0-.5-.4-1.1-1-1.3l-3.9-1Zm12.5 3.5c-.5-.1-1 .2-1 .7v629.5c0 .5.3 1.3.8 1.6l4.3 3.5c.4.4.8.2.8-.3V108.7c0-.6-.4-1.1-1-1.3l-3.9-1.1Zm12.4 3.5c-.5-.1-1 .2-1 .8v636.2c0 .5.3 1.3.8 1.6l4.3 3.5c.4.3.8.2.8-.4V111.9c0-.5-.4-1.1-1-1.2l-3.9-.9Zm12.5 3c-.5-.1-1 .2-1 .8V757c0 .5.3 1.3.8 1.6l4.3 3.4c.4.3.8.2.8-.4V114.9c0-.6-.4-1.1-1-1.2l-3.9-.9Zm12.5 2.7c-.5-.1-1 .2-1 .8v650.8c0 .6.4 1.3.8 1.6l4.3 3.6c.4.3.8.2.8-.4V117.6c0-.6-.4-1.1-1-1.2l-3.9-.9Zm12.4 2.4c-.5-.1-1 .2-1 .8V777c0 .5.4 1.3.8 1.6l4.3 3.4c.4.3.8.2.8-.4v-662c0-.6-.4-1.1-1-1.2l-3.9-.5Zm12.5 2.2c-.5-.1-1 .3-1 .8v665.9c0 .5.4 1.3.8 1.6l4.3 3.3c.4.3.8.2.8-.4V121.8c0-.5-.4-1.1-1-1.2l-3.9-.5Zm12.5 1.8c-.5-.1-1 .3-1 .8v673.7c0 .5.4 1.3.8 1.6l4.3 3.3c.4.3.8.2.8-.4V123.5c0-.6-.4-1.1-1-1.1l-3.9-.5Zm12.5 1.4c-.5-.1-1 .3-1 .9v681.7c0 .5.4 1.3.8 1.6l4.2 3.2c.4.3.8.1.8-.4V124.8c0-.5-.4-1.1-1-1.1l-3.8-.4Zm12.4 1.1c-.5 0-1 .4-1 .9v689.8c0 .5.4 1.3.8 1.6l4.2 3.1c.5.3.8.1.8-.4V125.6c0-.6-.4-1-1-1l-3.8-.2Zm12.5.7c-.5 0-1 .4-1 1v698.1c0 .6.4 1.3.8 1.6l4.2 3.1c.5.3.8.1.8-.4V126.2c0-.5-.4-1-1-1l-3.8-.1Zm12.5.3c-.5 0-1 .4-1 1V833c0 .5.4 1.3.8 1.6l4.2 2.9c.5.3.8.1.8-.4V126.5c0-.6-.4-1-1-1l-3.8-.1Zm12.4-.1c-.5 0-1 .5-1 1v715.2c0 .5.4 1.3.8 1.6l4.2 2.8c.5.3.8.1.8-.4V126.2c0-.5-.4-1-1-1l-3.8.1Zm12.5-.5c-.5 0-1 .5-1 1v724c0 .5.4 1.3.8 1.6l4.2 2.8c.5.3.8.1.8-.4V125.6c0-.6-.4-1-1-.9l-3.8.1Zm12.5-.8c-.5 0-1 .5-1 1.1v733c0 .6.4 1.2.9 1.5l4.1 2.6c.5.3.8.1.8-.5V124.5c0-.5-.4-.9-1-.9l-3.8.4Zm12.4-1.2c-.5.1-1 .6-1 1.1v741.9c0 .5.4 1.2.9 1.5l4.1 2.6c.5.3.8.1.8-.5V123.2c0-.6-.4-.9-1-.8l-3.8.4Zm12.5-1.7c-.5.1-1 .6-1 1.2v751c0 .5.4 1.2.9 1.5l4.1 2.3c.5.3.9 0 .9-.5V121.4c0-.5-.4-.9-1-.8l-3.9.5Zm12.5-2.1c-.5.1-1 .6-1 1.2v760.2c0 .5.4 1.2.9 1.5l4.1 2.3c.5.3.9 0 .9-.5V119.1c0-.6-.4-.9-1-.8l-3.9.7Zm12.4-2.5c-.5.1-1 .7-1 1.2v769.6c0 .5.4 1.2.9 1.5l4.1 2.2c.5.2.9 0 .9-.5V116.4c0-.6-.4-.9-1-.8l-3.9.9Zm12.5-3c-.5.1-1 .7-1 1.2v779.2c0 .5.4 1.2.9 1.4l4 2.1c.5.2.9 0 .9-.5V113.2c0-.6-.4-.9-1-.7l-3.8 1Zm12.4-3.4c-.5.2-1 .7-1 1.3v788.8c0 .5.4 1.2.9 1.4l4 1.7c.5.2.9-.1.9-.6v-793c0-.6-.4-.9-1-.7l-3.8 1.1Zm12.5-3.8c-.5.2-.9.8-.9 1.3V906c0 .6.4 1.2.9 1.4l4 1.7c.5.2.9-.1.9-.6V105.7c0-.5-.4-.9-.9-.7l-4 1.3Zm12.4-4.2c-.5.2-.9.8-.9 1.4v807.9c0 .5.4 1.2.9 1.4l4 1.7c.5.2.9-.1.9-.6V101.2c0-.6-.4-.8-.9-.6l-4 1.5Zm12.5-4.7c-.5.2-.9.8-.9 1.4v817.7c0 .5.4 1.2.9 1.4l4 1.5c.5.2.9-.1.9-.6V96.4c0-.5-.4-.8-.9-.6l-4 1.6Zm12.5-5.3c-.5.2-.9.8-.9 1.4v827.6c0 .5.4 1.1.9 1.3l3.9 1.3c.5.2 1-.2 1-.7V91c0-.6-.4-.8-.9-.6l-4 1.7Zm12.4-5.4c-.5.2-.9.9-.9 1.5v837.1c0 .5.4 1.1.9 1.3l3.9 1.2c.5.1 1-.2 1-.7V85.3c0-.5-.4-.8-.9-.6l-4 2Zm12.4-6c-.5.2-.9.9-.9 1.4V929c0 .5.4 1.1 1 1.3l4 1.1c.5.1 1-.2 1-.8V78.9c0-.6-.4-.8-.9-.5l-4.2 2.3Zm12.4-6.5c-.5.3-.9.9-.9 1.5v856.7c0 .5.4 1.1 1 1.3l4 .9c.5.1 1-.3 1-.8V72.5c0-.5-.4-.8-.9-.5l-4.2 2.2Zm12.5-7c-.5.3-.9.9-.9 1.5v866.5c0 .5.4 1.1 1 1.2l4 .8c.5.1 1-.3 1-.8V65.2c0-.6-.4-.8-.9-.5l-4.2 2.5Zm12.4-7.4c-.5.3-.9 1-.9 1.5v876.1c0 .6.4 1.1 1 1.2l4 .7c.5.1 1-.3 1-.8V57.7c0-.5-.4-.8-.9-.5l-4.2 2.6Zm12.5-7.8c-.5.3-.9 1-.9 1.5v885.7c0 .5.4 1.1 1 1.2l4 .5c.5 0 1-.4 1-.9V49.7c0-.5-.4-.8-.8-.5l-4.3 2.8Zm12.4-8.2c-.5.3-.8 1-.8 1.6v895.2c0 .6.4 1 1 1.1l3.8.2c.5 0 1-.4 1-1V41.5c0-.6-.4-.7-.8-.4l-4.2 2.7Zm12.5-8.6c-.4.3-.8 1-.8 1.6v904.4c0 .5.4 1 1 1.1l3.8.1c.6 0 1-.5 1-1v-909c0-.6-.4-.7-.8-.4l-4.2 3.2Zm12.4-9.2c-.4.3-.8 1-.8 1.6v913.8c0 .5.4 1 1 1l3.8-.1c.5 0 1-.5 1-1v-918c0-.5-.4-.7-.8-.4l-4.2 3.1Zm12.5-9.5c-.4.3-.8 1.1-.8 1.6v922.7c0 .6.4 1 1 1l3.8-.2c.5 0 1-.5 1-1.1v-927c0-.6-.3-.7-.8-.4l-4.2 3.4Zm12.5-10c-.4.3-.8 1.1-.8 1.6v931.7c0 .5.4.9 1 .9l3.9-.5c.5-.1 1-.6 1-1.2V3.3c0-.5-.3-.7-.8-.4l-4.3 3.6ZM1278-3.8c-.4.4-.8 1.1-.8 1.7V938c0 .5.4.9 1 .8l3.9-.7c.5-.1 1-.6 1-1.2V-7.3c0-.5-.3-.7-.8-.3l-4.3 3.8Zm12.4-11c-.4.4-.7 1.1-.7 1.7v948.8c0 .5.4.9 1 .8l3.9-.9c.5-.1 1-.7 1-1.2V-18.4c0-.6-.3-.7-.7-.3l-4.5 3.9Zm12.5-11.3c-.4.4-.7 1.1-.7 1.7v957c0 .5.4.9 1 .7l3.9-1.2c.5-.2 1-.7 1-1.3V-29.8c0-.5-.3-.7-.7-.3l-4.5 4Zm12.4-11.6c-.4.4-.7 1.1-.7 1.7v964.7c0 .5.4.9.9.7l3.9-1.5c.5-.2.9-.8.9-1.3V-41.7c0-.5-.3-.7-.7-.3l-4.3 4.3Zm12.5-12.2c-.4.4-.7 1.1-.7 1.7V924c0 .5.4.8.9.6l4-1.6c.5-.2.9-.8.9-1.4V-53.9c0-.5-.3-.7-.7-.3l-4.4 4.3Zm12.5-12.5c-.4.4-.7 1.2-.7 1.7v979.4c0 .5.4.8.9.5l4-2c.5-.2.9-.9.9-1.4V-66.7c0-.6-.3-.7-.7-.3l-4.4 4.6Zm12.4-13.1c-.4.4-.7 1.2-.7 1.7v986.2c0 .5.4.8.9.5l4.1-2.3c.5-.3.9-1 .9-1.5V-80c0-.5-.3-.7-.7-.3l-4.5 4.8Zm12.5-13.3c-.4.4-.7 1.2-.7 1.7v992.4c0 .5.4.8.9.5l4.1-2.6c.5-.3.8-1 .8-1.6V-93.5c0-.6-.3-.7-.7-.3l-4.4 5Zm12.4-13.8c-.4.4-.7 1.2-.7 1.7v998.4c0 .5.4.7.8.4l4.2-2.9c.5-.3.8-1 .8-1.6v-1001c0-.5-.3-.7-.7-.2l-4.4 5.2Zm12.5-14.2c-.4.4-.6 1.2-.6 1.8V888.7c0 .6.4.7.8.4l4.2-3.2c.4-.3.8-1 .8-1.6V-121.9c0-.5-.3-.7-.6-.2l-4.6 5.3Zm12.4-14.7c-.4.4-.6 1.2-.6 1.8V878.9c0 .6.3.7.8.3l4.3-3.7c.4-.4.8-1.1.8-1.7V-136.7c0-.6-.3-.7-.6-.2l-4.7 5.4Zm12.5-15.1c-.4.4-.6 1.2-.6 1.8V868c0 .5.3.7.8.3l4.4-3.9c.4-.4.7-1.1.7-1.7V-152c0-.6-.3-.6-.6-.2l-4.7 5.6Zm12.5-15.3c-.3.4-.6 1.2-.6 1.8V856.3c0 .5.3.7.7.3l4.4-4.4c.4-.4.7-1.2.7-1.7v-1018c0-.6-.3-.6-.6-.2l-4.6 5.8Zm12.4-15.7c-.3.4-.6 1.2-.6 1.8V843.5c0 .5.3.7.7.3l4.5-5c.4-.4.7-1.2.7-1.7V-183.5c0-.6-.3-.6-.6-.2l-4.7 6.1Zm12.5-16.4c-.3.4-.6 1.2-.6 1.8V829.5c0 .5.3.7.6.2l4.6-5.4c.4-.4.6-1.2.6-1.8V-199.9c0-.6-.3-.6-.6-.2l-4.6 6.1Zm12.4-16.7c-.3.4-.6 1.2-.6 1.8V814.5c0 .5.3.6.6.2l4.6-5.9c.3-.4.6-1.2.6-1.8V-216.7c0-.6-.3-.6-.6-.2l-4.6 6.2Zm12.5-16.9c-.3.4-.6 1.3-.6 1.8v1024c0 .5.3.6.6.2l4.7-6.5c.3-.4.6-1.3.6-1.8v-1024c0-.6-.3-.6-.6-.2l-4.7 6.5Zm12.4-17.4c-.3.4-.6 1.3-.6 1.8V780.6c0 .6.3.6.6.2l4.7-7.1c.3-.5.6-1.3.6-1.8V-251.5c0-.6-.3-.6-.6-.2l-4.7 6.7Z" style="fill:url(#b)"/><path d="M142.6 205.5c.4-.4.7-.3.7.3v221.4c0 .6-.3 1.3-.7 1.7l-4.4 4.1c-.4.4-.7.2-.7-.3v-221c0-.6.3-1.3.7-1.7l4.4-4.5ZM125.7 223c-.4.4-.7 1.2-.7 1.7v220.5c0 .6.3.7.7.3l4.4-4.5c.4-.4.7-1.1.7-1.7V218.5c0-.5-.3-.7-.7-.3l-4.4 4.8Zm24.9-25.4c-.4.4-.7 1.2-.7 1.7v222.3c0 .5.3.7.8.3l4.3-3.4c.4-.3.8-1.1.8-1.6V193.7c0-.6-.3-.7-.7-.3l-4.5 4.2Zm12.5-11.9c-.4.4-.7 1.1-.7 1.7v224.4c0 .5.4.7.8.4l4.2-2.9c.5-.3.8-1 .8-1.6V182.1c0-.6-.3-.7-.7-.3l-4.4 3.9Zm12.5-11.1c-.4.4-.7 1.1-.7 1.7v227.1c0 .6.4.8.8.5l4.1-2.5c.5-.3.9-.9.9-1.5V171.3c0-.5-.3-.7-.8-.3l-4.3 3.6Zm12.5-10.5c-.4.3-.8 1.1-.8 1.6v230.4c0 .5.4.8.9.5l4.1-2.2c.5-.2.9-.9.9-1.4V160.9c0-.6-.4-.7-.8-.4l-4.3 3.6Zm12.5-10c-.4.3-.8 1.1-.8 1.6v234c0 .6.4.8.9.6l4-1.8c.5-.2.9-.9.9-1.4V151.3c0-.6-.4-.7-.8-.4l-4.2 3.2Zm12.5-9.3c-.5.3-.8 1-.8 1.6v238.2c0 .6.4.8.9.6l4-1.5c.5-.2.9-.8.9-1.3v-240c0-.5-.4-.7-.8-.4l-4.2 2.8Zm12.5-8.6c-.5.3-.8 1-.8 1.6v242.4c0 .5.4.9 1 .7l3.9-1.2c.5-.1 1-.7 1-1.3V133.9c0-.6-.4-.8-.8-.5l-4.3 2.8Zm12.4-8.1c-.5.3-.8 1-.8 1.5v246.9c0 .6.4.9 1 .8l3.9-.9c.5-.1 1-.6 1-1.2V126.1c0-.6-.4-.8-.9-.5l-4.2 2.5Zm12.5-7.5c-.5.3-.9.9-.9 1.5V374c0 .5.4.9 1 .8l3.9-.7c.5-.1 1-.6 1-1.2v-254c0-.5-.4-.8-.9-.5l-4.1 2.2Zm12.5-6.9c-.5.3-.9.9-.9 1.5V372c0 .5.4.9 1 .9l3.9-.5c.5-.1 1-.6 1-1.1v-259c0-.6-.4-.8-.9-.6l-4.1 2Zm12.5-6.2c-.5.2-.9.9-.9 1.4v261.8c0 .5.4 1 1 .9l3.8-.3c.5 0 1-.5 1-1.1V106.1c0-.6-.4-.8-.9-.6l-4 2Zm12.5-5.8c-.5.2-.9.9-.9 1.4V370c0 .5.4 1 1 1l3.8-.1c.6 0 1-.4 1-1V100.7c0-.6-.4-.8-.9-.6l-4 1.6Zm12.5-5.1c-.5.2-.9.8-.9 1.4v272.1c0 .5.4 1 1 1l3.8.1c.5 0 1-.4 1-.9V95.8c0-.6-.4-.8-.9-.7l-4 1.5Zm12.4-4.5c-.5.2-.9.8-.9 1.3v277.3c0 .5.4 1 1 1.1l3.8.2c.5 0 1-.4 1-.9V91.4c0-.6-.4-.9-.9-.7l-4 1.4Zm12.5-4c-.5.2-1 .8-1 1.3v282.4c0 .6.4 1 1 1.1l3.9.5c.5.1 1-.3 1-.9V87.7c0-.6-.4-.9-1-.7l-3.9 1.1Zm12.5-3.5c-.5.1-1 .7-1 1.3v287.6c0 .6.4 1.1 1 1.1l3.9.6c.5.1 1-.3 1-.8v-290c0-.6-.4-.9-1-.8l-3.9 1Zm12.5-3.1c-.5.1-1 .7-1 1.2v292.8c0 .5.4 1.1 1 1.2l3.9.7c.5.1 1-.2 1-.8v-295c0-.6-.4-.9-1-.8l-3.9.7Zm12.4-2.4c-.5.1-1 .6-1 1.2v297.9c0 .5.4 1.1 1 1.2l3.9.9c.5.1 1-.2 1-.8V79.3c0-.5-.4-.9-1-.9l-3.9.7Zm12.5-2c-.5.1-1 .6-1 1.1v302.9c0 .6.4 1.1 1 1.2l3.9.9c.5.1 1-.2 1-.8v-305c0-.5-.4-.9-1-.9l-3.9.6Zm12.5-1.4c-.5.1-1 .6-1 1.1v307.7c0 .5.4 1.1 1 1.3l3.9 1.1c.5.1 1-.2 1-.7v-310c0-.6-.4-1-1-.9l-3.9.4Zm12.5-1.2c-.5 0-1 .5-1 1.1v312.6c0 .6.4 1.1 1 1.3l3.9 1.3c.5.2.9-.1.9-.7V75.3c0-.5-.4-1-1-.9l-3.8.1Zm12.4-.6c-.5 0-1 .5-1 1v317.4c0 .6.4 1.1.9 1.3l4 1.4c.5.2.9-.1.9-.6V74.9c0-.6-.4-1-1-1h-3.8Zm12.5-.2c-.5 0-1 .4-1 1v322c0 .5.4 1.2.9 1.3l4 1.4c.5.2.9-.1.9-.6v-324c0-.6-.4-1-1-1l-3.8-.1Zm12.5.3c-.5 0-1 .4-1 1v326.5c0 .5.4 1.2.9 1.4l4 1.5c.5.2.9-.1.9-.6V75.2c0-.6-.4-1-1-1.1l-3.8-.1Zm12.4.6c-.5 0-1 .4-1 .9v331c0 .6.4 1.2.9 1.4l4 1.7c.5.2.9-.1.9-.6V75.8c0-.6-.4-1-1-1.1l-3.8-.1Zm12.4.9c-.5 0-1 .4-1 .9v335.2c0 .5.4 1.2.9 1.4l4.1 1.9c.5.2.9 0 .9-.6V76.9c0-.6-.4-1-1-1.1l-3.9-.3Zm12.5 1.2c-.5-.1-1 .3-1 .9v339.6c0 .5.4 1.2.9 1.4l4.1 1.8c.5.2.9 0 .9-.6V78.4c0-.5-.4-1.1-1-1.1l-3.9-.6Zm12.4 1.7c-.5-.1-1 .3-1 .9V423c0 .5.4 1.2.9 1.4l4.1 1.9c.5.2.9 0 .9-.6V80.1c0-.6-.4-1.1-1-1.2l-3.9-.5Zm12.5 1.8c-.5-.1-1 .3-1 .8v348c0 .5.4 1.2.9 1.4l4.1 2c.5.2.9 0 .9-.6V82c0-.5-.4-1.1-1-1.2l-3.9-.6Zm12.4 2.2c-.5-.1-1 .3-1 .8v352c0 .5.4 1.2.9 1.5l4.2 2.1c.5.3.9 0 .9-.5V84.2c0-.6-.4-1.1-1-1.2l-4-.6Zm12.5 2.3c-.5-.1-1 .2-1 .8v356c0 .5.4 1.2.9 1.5l4.2 2.2c.5.3.9 0 .9-.5v-358c0-.6-.4-1.1-1-1.2l-4-.8Zm12.5 2.7c-.5-.1-1 .3-1 .8v359.9c0 .5.4 1.2.9 1.5l4.1 2.2c.5.3.9 0 .9-.5V89.5c0-.6-.4-1.1-1-1.2l-3.9-.9Zm12.4 2.8c-.5-.1-1 .2-1 .8v363.8c0 .5.4 1.2.9 1.5l4.1 2.2c.5.3.9.1.9-.5V92.4c0-.6-.4-1.1-1-1.2l-3.9-1Zm12.5 3c-.5-.1-1 .2-1 .8v367.7c0 .6.4 1.2.9 1.5l4.1 2.2c.5.3.9 0 .9-.5V95.5c0-.5-.4-1.1-1-1.3l-3.9-1Zm12.5 3.1c-.5-.1-1 .2-1 .7v371.5c0 .6.4 1.2.9 1.5l4.1 2.3c.5.3.9.1.9-.5V98.7c0-.5-.4-1.1-1-1.3l-3.9-1.1Zm12.4 3.3c-.5-.1-1 .2-1 .7v375.3c0 .5.4 1.2.9 1.5l4.1 2.4c.5.3.9.1.9-.5V102c0-.5-.4-1.1-1-1.3l-3.9-1.1Zm12.5 3.5c-.5-.1-1 .2-1 .7v379c0 .6.4 1.2.9 1.5l4.1 2.4c.5.3.9 0 .9-.5V105.4c0-.5-.4-1.1-1-1.3l-3.9-1Zm12.4 3.4c-.5-.2-1 .2-1 .7v382.9c0 .6.4 1.2.9 1.5l4.1 2.4c.5.3.9.1.9-.5V108.9c0-.6-.4-1.1-1-1.3l-3.9-1.1Zm12.5 3.6c-.5-.1-1 .2-1 .7v386.7c0 .6.4 1.2.9 1.5l4.1 2.5c.5.3.9.1.9-.5V112.4c0-.6-.4-1.1-1-1.3l-3.9-1Zm12.5 3.5c-.5-.2-1 .2-1 .7V505c0 .5.4 1.2.9 1.5l4.1 2.5c.5.3.8.1.8-.5V116.1c0-.5-.4-1.1-1-1.3l-3.8-1.2Zm12.5 3.7c-.5-.1-1 .2-1 .7v394.4c0 .5.4 1.2.9 1.5l4.1 2.5c.5.3.9.1.9-.5V119.7c0-.5-.4-1.1-1-1.3l-3.9-1.1Zm12.4 3.7c-.5-.2-1 .2-1 .7V520c0 .5.4 1.2.9 1.5l4.1 2.5c.5.3.9.1.9-.5V123.4c0-.5-.4-1.1-1-1.3l-3.9-1.1Zm12.5 3.6c-.5-.2-1 .2-1 .7v402.3c0 .5.4 1.2.9 1.5l4.1 2.5c.5.3.9.1.9-.5v-404c0-.6-.4-1.1-1-1.3l-3.9-1.2Zm12.5 3.6c-.5-.1-1 .2-1 .7v406.2c0 .6.4 1.2.9 1.5l4.1 2.5c.5.3.9.1.9-.5v-408c0-.5-.4-1.1-1-1.3l-3.9-1.1Zm12.4 3.6c-.5-.1-1 .2-1 .7v410.3c0 .5.4 1.2.9 1.5l4.1 2.5c.5.3.9.1.9-.5V134.2c0-.6-.4-1.1-1-1.3l-3.9-1.1Zm12.5 3.5c-.5-.1-1 .2-1 .7v414.3c0 .5.4 1.2.8 1.5l4.1 2.6c.5.3.9.1.9-.5V137.6c0-.6-.4-1.1-1-1.3l-3.8-1Zm12.5 3.4c-.5-.1-1 .2-1 .8V558c0 .5.4 1.2.9 1.5l4.1 2.6c.5.3.8.1.8-.5V140.9c0-.6-.4-1.1-1-1.2l-3.8-1Zm12.4 3.3c-.5-.1-1 .2-1 .8v423c0 .5.4 1.2.9 1.5l4.1 2.5c.5.3.9.1.9-.5v-425c0-.6-.4-1.1-1-1.3l-3.9-1Zm12.5 3.1c-.5-.1-1 .2-1 .7v427.5c0 .5.4 1.2.9 1.5l4.1 2.5c.5.3.9.1.9-.5V147.3c0-.6-.4-1.1-1-1.2l-3.9-1Zm12.5 3.1c-.5-.1-1 .2-1 .8v431.8c0 .6.4 1.2.9 1.5l4.1 2.5c.5.3.9.1.9-.5v-434c0-.6-.4-1.1-1-1.2l-3.9-.9Zm12.4 2.8c-.5-.1-1 .2-1 .8v436.4c0 .5.4 1.2.9 1.5l4.1 2.5c.5.3.9.1.9-.5V153.1c0-.6-.4-1.1-1-1.2l-3.9-.9Zm12.5 2.8c-.5-.1-1 .2-1 .8v441.1c0 .5.4 1.2.9 1.5l4.1 2.5c.5.3.9.1.9-.5V155.8c0-.6-.4-1.1-1-1.2l-3.9-.8Zm12.5 2.5c-.5-.1-1 .3-1 .8v446c0 .5.4 1.2.9 1.5l4.1 2.4c.5.3.9.1.9-.5V158.3c0-.6-.4-1.1-1-1.2l-3.9-.8Zm12.4 2.5c-.5-.1-1 .3-1 .8v450.8c0 .5.4 1.2.9 1.5l4.1 2.4c.5.3.9.1.9-.5V160.6c0-.6-.4-1.1-1-1.2l-3.9-.6Zm12.5 2.1c-.5-.1-1 .3-1 .8v456c0 .5.4 1.2.9 1.5l4.1 2.3c.5.3.9 0 .9-.5V162.7c0-.6-.4-1.1-1-1.2l-3.9-.6Zm12.5 1.9c-.5-.1-1 .3-1 .8v461.2c0 .5.4 1.2.9 1.5l4.1 2.4c.5.3.9.1.9-.5V164.6c0-.6-.4-1.1-1-1.2l-3.9-.6Zm12.4 1.7c-.5-.1-1 .3-1 .8v466.5c0 .5.4 1.2.9 1.5l4.1 2.3c.5.3.9 0 .9-.5v-469c0-.6-.4-1-1-1.1l-3.9-.5Zm12.5 1.6c-.5-.1-1 .3-1 .9v471.9c0 .5.4 1.2.9 1.5l4.1 2.2c.5.3.9 0 .9-.5V167.6c0-.6-.4-1-1-1.1l-3.9-.4Zm12.5 1.3c-.5-.1-1 .3-1 .9v477.4c0 .5.4 1.2.9 1.5l4.1 2.2c.5.3.9 0 .9-.5V168.8c0-.6-.4-1-1-1.1l-3.9-.3Zm12.5 1c-.5 0-1 .4-1 .9v483.1c0 .5.4 1.2.9 1.5l4.1 2.2c.5.3.9 0 .9-.5V169.8c0-.6-.4-1-1-1.1l-3.9-.3Zm12.4.7c-.5 0-1 .4-1 .9v488.8c0 .5.4 1.2.9 1.5l4.1 2.1c.5.2.9 0 .9-.6V170.3c0-.6-.4-1-1-1l-3.9-.2Zm12.5.5c-.5 0-1 .4-1 1v494.7c0 .6.4 1.2.9 1.5l4.1 2.1c.5.2.9 0 .9-.6V170.7c0-.6-.5-1-1-1l-3.9-.1Zm12.5.3c-.5 0-1 .4-1 1v500.8c0 .5.4 1.2.9 1.4l4 2c.5.2.9 0 .9-.6V170.9c0-.6-.5-1-1-1h-3.8Zm12.4-.1c-.5 0-1 .4-1 1v506.9c0 .5.4 1.2.9 1.4l4 1.9c.5.2.9 0 .9-.6V170.7c0-.6-.4-1-1-1l-3.8.1Zm12.5-.3c-.5 0-1 .5-1 1v513.1c0 .6.4 1.2.9 1.4l4 1.9c.5.2.9 0 .9-.6v-516c0-.6-.4-1-1-.9l-3.8.1Zm12.5-.6c-.5 0-1 .5-1 1.1v519.5c0 .5.4 1.2.9 1.4l4 1.8c.5.2.9 0 .9-.6V169.5c0-.6-.4-1-1-.9l-3.8.3Zm12.4-.9c-.5 0-1 .5-1 1.1v525.8c0 .6.4 1.2.9 1.4l4 1.8c.5.2.9 0 .9-.6V168.6c0-.6-.4-1-1-.9l-3.8.3Zm12.5-1.2c-.5.1-1 .6-1 1.1v532.3c0 .5.4 1.2.9 1.4l4 1.6c.5.2.9-.1.9-.6V167.3c0-.6-.4-1-1-.9l-3.8.4Zm12.4-1.5c-.5.1-1 .6-1 1.1v538.8c0 .5.4 1.2.9 1.4l4 1.6c.5.2.9-.1.9-.6V165.7c0-.6-.4-.9-1-.9l-3.8.5Zm12.5-1.7c-.5.1-1 .6-1 1.2v545.4c0 .5.4 1.2.9 1.4l4 1.5c.5.2.9-.1.9-.7V163.8c0-.6-.4-.9-1-.8l-3.8.6Zm12.5-2.2c-.5.1-1 .6-1 1.2v552.2c0 .5.4 1.1.9 1.3l4 1.5c.5.2.9-.1.9-.7V161.5c0-.6-.4-.9-1-.8l-3.8.7Zm12.4-2.4c-.5.1-1 .7-1 1.2v559.1c0 .5.4 1.1 1 1.3l3.9 1.2c.5.2 1-.2 1-.7v-562c0-.6-.4-.9-1-.8l-3.9.7Zm12.5-2.7c-.5.1-1 .7-1 1.2v565.8c0 .5.4 1.1.9 1.3l3.9 1.2c.5.2 1-.2 1-.7v-569c0-.6-.4-.9-1-.8l-3.8 1Zm12.4-3c-.5.1-1 .7-1 1.3v572.6c0 .5.4 1.1 1 1.3l3.9 1.2c.5.1 1-.2 1-.7V153c0-.6-.4-.9-1-.7l-3.9 1Zm12.5-3.3c-.5.2-1 .7-1 1.3v579.6c0 .5.4 1.1 1 1.3l3.9 1.1c.5.1 1-.2 1-.7v-583c0-.6-.4-.9-1-.7l-3.9 1.1Zm12.5-3.7c-.5.2-1 .7-1 1.3v586.6c0 .5.4 1.1 1 1.2l3.9.9c.5.1 1-.2 1-.8V145.8c0-.6-.4-.9-1-.7l-3.9 1.2Zm12.4-3.9c-.5.2-.9.8-.9 1.3V737c0 .5.4 1.1 1 1.2l3.9.8c.5.1 1-.3 1-.8V141.7c0-.5-.4-.9-.9-.7l-4.1 1.4Zm12.4-4.3c-.5.2-.9.8-.9 1.3v600.3c0 .5.4 1.1 1 1.2l4 .8c.5.1 1-.3 1-.8V137.2c0-.6-.4-.8-.9-.6l-4.2 1.5Zm12.5-4.6c-.5.2-.9.8-.9 1.4v607.2c0 .5.4 1.1 1 1.2l4 .6c.5.1 1-.3 1-.9V132.6c0-.5-.4-.8-.9-.6l-4.2 1.5Zm12.4-4.9c-.5.2-.9.8-.9 1.4v614.2c0 .6.4 1.1 1 1.2l4 .6c.5.1 1-.3 1-.9V127.5c0-.5-.4-.8-.9-.6l-4.2 1.7Zm12.5-5.3c-.5.2-.9.8-.9 1.4v621c0 .5.4 1.1 1 1.1l4 .5c.5.1 1-.3 1-.9V122.1c0-.6-.4-.8-.9-.6l-4.2 1.8Zm12.4-5.5c-.5.2-.9.8-.9 1.4V747c0 .5.4 1 1 1.1l3.9.4c.5 0 1-.4 1-.9v-631c0-.5-.4-.8-.9-.6l-4.1 1.8Zm12.5-5.8c-.5.2-.9.9-.9 1.4v634.5c0 .6.4 1 1 1.1l3.8.1c.5 0 1-.4 1-1V110.6c0-.5-.4-.8-.9-.6l-4 2Zm12.4-6.2c-.5.3-.9.9-.9 1.5v641.1c0 .6.4 1 1 1.1l3.8.1c.6 0 1-.5 1-1V104.2c0-.6-.4-.8-.9-.5l-4 2.1Zm12.5-6.5c-.5.3-.9.9-.9 1.5v647.8c0 .5.4 1 1 1l3.8-.1c.5 0 1-.5 1-1V97.7c0-.6-.4-.8-.9-.5l-4 2.1Zm12.5-6.7c-.5.3-.9.9-.9 1.5v654.1c0 .5.4 1 1 1l3.8-.1c.5 0 1-.5 1-1.1V90.8c0-.6-.4-.8-.9-.5l-4 2.3Zm12.4-7.2c-.5.3-.9.9-.9 1.5v660.5c0 .5.4 1 1 .9l3.8-.3c.5-.1 1-.6 1-1.1V83.5c0-.5-.4-.8-.9-.5l-4 2.4Zm12.5-7.3c-.5.3-.9 1-.9 1.5v666.5c0 .5.4 1 1 .9l3.9-.5c.5-.1 1-.6 1-1.1V76c0-.6-.4-.8-.8-.5l-4.2 2.6Zm12.4-7.8c-.5.3-.8 1-.8 1.5v672.6c0 .5.4.9 1 .8l3.9-.6c.5-.1 1-.6 1-1.2V68.1c0-.6-.4-.8-.8-.4l-4.3 2.6Zm12.5-8c-.5.3-.8 1-.8 1.5v678.4c0 .5.4.9 1 .8l3.9-.8c.5-.1 1-.7 1-1.2V60c0-.5-.4-.8-.8-.4l-4.3 2.7Zm12.4-8.2c-.5.3-.8 1-.8 1.6v683.9c0 .5.4.9 1 .8l3.9-1c.5-.1 1-.7 1-1.2V51.6c0-.6-.4-.7-.8-.4l-4.3 2.9Zm12.5-8.7c-.5.3-.8 1-.8 1.6v689.2c0 .6.4.9 1 .7l3.9-1.2c.5-.2 1-.7 1-1.3V42.9c0-.5-.4-.7-.8-.4l-4.3 2.9Zm12.5-8.9c-.4.3-.8 1-.8 1.6v694.3c0 .5.4.8.9.7l3.9-1.4c.5-.2.9-.8.9-1.3V33.9c0-.5-.4-.7-.8-.4l-4.1 3Zm12.4-9.2c-.4.3-.8 1-.8 1.6V728c0 .5.4.8.9.6l4-1.6c.5-.2.9-.8.9-1.4V24.5c0-.5-.4-.7-.8-.4l-4.2 3.2Zm12.5-9.5c-.4.3-.8 1.1-.8 1.6V723c0 .5.4.8.9.6l4-1.8c.5-.2.9-.9.9-1.4V14.9c0-.6-.4-.7-.8-.4l-4.2 3.3Zm12.4-9.8c-.4.3-.8 1.1-.8 1.6v707.8c0 .5.4.8.9.6l4-2c.5-.2.9-.9.9-1.4V4.9c0-.6-.3-.7-.8-.4l-4.2 3.5Zm12.5-10c-.4.4-.8 1.1-.8 1.6v711.5c0 .5.4.8.9.5l4.1-2.2c.5-.3.9-.9.9-1.5V-5.3c0-.5-.3-.7-.8-.4l-4.3 3.7Zm12.5-10.5c-.4.4-.8 1.1-.8 1.6v715c0 .6.4.8.9.5l4.1-2.5c.5-.3.9-1 .9-1.5V-15.8c0-.5-.3-.7-.8-.4l-4.3 3.7Zm12.4-10.7c-.4.4-.8 1.1-.8 1.6v718c0 .5.4.8.8.5l4.2-2.7c.5-.3.8-1 .8-1.6V-26.7c0-.6-.3-.7-.7-.3l-4.3 3.8Zm12.5-10.9c-.4.4-.7 1.1-.7 1.7v720.6c0 .6.4.7.8.4l4.2-3c.4-.3.8-1 .8-1.6V-37.7c0-.5-.3-.7-.7-.3l-4.4 3.9Zm12.4-11.1c-.4.4-.7 1.1-.7 1.7v722.6c0 .5.4.7.8.4l4.3-3.4c.4-.3.8-1.1.8-1.6V-49c0-.5-.3-.7-.7-.3l-4.5 4.1Zm12.5-11.7c-.4.4-.7 1.1-.7 1.7v724.3c0 .6.3.7.8.4l4.3-3.6c.4-.4.8-1.1.8-1.7V-60.6c0-.5-.3-.7-.7-.3l-4.5 4Zm12.4-11.8c-.4.4-.7 1.1-.7 1.7v725.5c0 .5.3.7.7.3l4.4-4c.4-.4.7-1.1.7-1.7V-72.6c0-.6-.3-.7-.7-.3l-4.4 4.2Zm12.5-12c-.4.4-.7 1.2-.7 1.7v726c0 .5.3.7.7.3l4.4-4.4c.4-.4.7-1.1.7-1.7V-84.7c0-.6-.3-.7-.7-.3l-4.4 4.3Zm12.5-12.4c-.4.4-.7 1.2-.7 1.7v725.8c0 .5.3.7.7.3l4.5-4.7c.4-.4.7-1.2.7-1.7V-97.2c0-.5-.3-.7-.7-.3l-4.5 4.4Z" style="fill:url(#c)"/></g></g></svg>