<svg viewBox="0 0 71.2 14" xmlns="http://www.w3.org/2000/svg">
    <g>
        <path
            d="M0 6h2.32A2.17 2.17 0 014 6.53a1.8 1.8 0 01.5 1.3 1.5 1.5 0 01-.29.91 1.86 1.86 0 01-.81.57 1.79 1.79 0 011 .6A1.68 1.68 0 014.71 11a2 2 0 01-.52 1.39 2.25 2.25 0 01-1.71.61H0zm2.15 3.06a2 2 0 001.24-.34 1.09 1.09 0 00.42-.91c0-.79-.48-1.18-1.43-1.18H.7v2.43zm.45 3.31A1.5 1.5 0 003.73 12a1.29 1.29 0 00.33-.91c0-.95-.6-1.43-1.79-1.43H.7v2.7zm6.81.63v-.49a1.55 1.55 0 01-.56.48 1.67 1.67 0 01-.71.13 1.71 1.71 0 01-1.43-.56 2.91 2.91 0 01-.45-1.82V7.89H7V11a1.66 1.66 0 00.32 1.12 1.09 1.09 0 00.86.36C9 12.49 9.41 12 9.41 11V7.89h.7V13zm3.19-6.29a.46.46 0 01-.79-.33A.48.48 0 0112 6a.43.43 0 01.32-.14.45.45 0 01.28.14.47.47 0 01.13.34.44.44 0 01-.13.37zM11.92 13V7.89h.7V13zm2.56 0V6.12l.7-.34V13zm3.83.12c-.67 0-1-.39-1-1.17V8.52h-.87v-.63h.87V6.13l.7-.35v2.11h1.3v.63H18v3.13a1.37 1.37 0 00.11.6.45.45 0 00.44.21 1.42 1.42 0 00.77-.3l-.08.73a2 2 0 01-.93.23zm6.55 0a2 2 0 01-1.59-.71 2.91 2.91 0 01-.6-2 2.94 2.94 0 01.6-2 2 2 0 011.59-.72 2 2 0 011.6.7 3 3 0 01.59 2 3 3 0 01-.6 2 2 2 0 01-1.59.73zm0-.63a1.26 1.26 0 001.08-.49 2.66 2.66 0 00.38-1.51A2.6 2.6 0 0026 8.94a1.25 1.25 0 00-1.09-.54 1.28 1.28 0 00-1.09.52 2.64 2.64 0 00-.37 1.53 2.6 2.6 0 00.37 1.5 1.25 1.25 0 001.04.54zm6.79.51V9.88a1.69 1.69 0 00-.32-1.13 1.12 1.12 0 00-.87-.35c-.84 0-1.26.49-1.26 1.46V13h-.7V7.89h.7v.56a1.51 1.51 0 011.32-.68 1.66 1.66 0 011.39.57 3 3 0 01.44 1.83V13z" />
        <path
            d="M46.81.27v12.46a.27.27 0 01-.08.19.18.18 0 01-.07.05.2.2 0 01-.11 0h-1.63a.26.26 0 01-.25-.27V.27a.26.26 0 01.25-.27h1.63a.27.27 0 01.26.27M54.05 11.13h-3.14a.26.26 0 01-.23-.21V.26a.26.26 0 00-.25-.26H48.8a.26.26 0 00-.26.26v12.47a.27.27 0 00.26.27h5.25a.26.26 0 00.25-.26v-1.35a.26.26 0 00-.25-.26M43.37 12.61l-3.3-6.21a.28.28 0 010-.25L43.13.39A.27.27 0 0043 0a.27.27 0 00-.12 0h-1.82a.26.26 0 00-.22.13l-2.5 4.72V.26a.26.26 0 00-.26-.26h-1.63a.26.26 0 00-.25.26v12.47a.26.26 0 00.25.27h1.63a.27.27 0 00.26-.27V9.86l-.76-3.59 3.5 6.59a.24.24 0 00.22.14h1.85a.26.26 0 00.25-.26.28.28 0 000-.13M60.2.26v1.35a.25.25 0 01-.25.26h-3.16l1 .73a.14.14 0 01.06.11v10a.27.27 0 01-.26.27H56a.26.26 0 01-.25-.27V2.14a.27.27 0 00-.23-.27h-1.88a.26.26 0 01-.26-.26V.26a.26.26 0 01.26-.26H60a.26.26 0 01.25.26"
            fill-rule="evenodd" />
        <path
            d="M63.52 0a.3.3 0 00-.32.26v1.61L64.86 3l2.34-1.59L65.14 0zM67.2 11.7l1.94 1.3h1.71a.4.4 0 00.15 0 .31.31 0 00.1-.05.26.26 0 00.1-.19V11l-1.46-1z" />
        <path d="M71.2.2v1.59L64 6.52A1.83 1.83 0 0063.2 8V4l6.07-4h1.63a.3.3 0 01.3.2" />
        <path
            d="M67.2 4.58L69.48 6l.82-.52a1.87 1.87 0 00.9-1.57L69.74 3zM63.94 7.77a2 2 0 00-.74 1.13l1.64 1.1 2.36-1.58L65.09 7z" />
        <path d="M70.38 5.64L63.2 10.7V14l8-5.6V4a2 2 0 01-.82 1.64" />
    </g>
</svg>